<svg xmlns="http://www.w3.org/2000/svg" xmlns:xlink="http://www.w3.org/1999/xlink" contentStyleType="text/css" data-diagram-type="ACTIVITY" height="922px" preserveAspectRatio="none" style="width:755px;height:922px;background:#FFFFFF;" version="1.1" viewBox="0 0 755 922" width="755px" zoomAndPan="magnify"><defs/><g><ellipse cx="476.1082" cy="20" fill="#222222" rx="10" ry="10" style="stroke:#222222;stroke-width:1;"/><rect fill="#F1F1F1" height="33.9688" rx="12.5" ry="12.5" style="stroke:#181818;stroke-width:0.5;" width="107.4805" x="422.368" y="50"/><text fill="#000000" font-family="sans-serif" font-size="12" lengthAdjust="spacing" textLength="87.4805" x="432.368" y="71.1387">Iniciar sistema</text><rect fill="#F1F1F1" height="33.9688" rx="12.5" ry="12.5" style="stroke:#181818;stroke-width:0.5;" width="284.8262" x="333.6951" y="103.9688"/><text fill="#000000" font-family="sans-serif" font-size="12" lengthAdjust="spacing" textLength="264.8262" x="343.6951" y="125.1074">Detectar presencia del dedo con sensor ToF</text><polygon fill="#F1F1F1" points="429.1434,157.9375,523.0731,157.9375,535.0731,169.9375,523.0731,181.9375,429.1434,181.9375,417.1434,169.9375,429.1434,157.9375" style="stroke:#181818;stroke-width:0.5;"/><text fill="#000000" font-family="sans-serif" font-size="11" lengthAdjust="spacing" textLength="93.9297" x="429.1434" y="173.7456">Dedo detectado?</text><text fill="#000000" font-family="sans-serif" font-size="11" lengthAdjust="spacing" textLength="10.0386" x="407.1048" y="167.3433">S&#237;</text><text fill="#000000" font-family="sans-serif" font-size="11" lengthAdjust="spacing" textLength="14.9585" x="535.0731" y="167.3433">No</text><rect fill="#F1F1F1" height="33.9688" rx="12.5" ry="12.5" style="stroke:#181818;stroke-width:0.5;" width="230.0645" x="196.2872" y="191.9375"/><text fill="#000000" font-family="sans-serif" font-size="12" lengthAdjust="spacing" textLength="210.0645" x="206.2872" y="213.0762">Activar m&#243;dulo de iluminaci&#243;n LED</text><rect fill="#F1F1F1" height="33.9688" rx="12.5" ry="12.5" style="stroke:#181818;stroke-width:0.5;" width="230.2285" x="196.2052" y="245.9063"/><text fill="#000000" font-family="sans-serif" font-size="12" lengthAdjust="spacing" textLength="210.2285" x="206.2052" y="267.0449">Capturar imagen con sensor CMOS</text><rect fill="#F1F1F1" height="33.9688" rx="12.5" ry="12.5" style="stroke:#181818;stroke-width:0.5;" width="120.8281" x="250.9054" y="299.875"/><text fill="#000000" font-family="sans-serif" font-size="12" lengthAdjust="spacing" textLength="100.8281" x="260.9054" y="321.0137">Procesar imagen</text><rect fill="#F1F1F1" height="33.9688" rx="12.5" ry="12.5" style="stroke:#181818;stroke-width:0.5;" width="175.7598" x="223.4396" y="353.8438"/><text fill="#000000" font-family="sans-serif" font-size="12" lengthAdjust="spacing" textLength="155.7598" x="233.4396" y="374.9824">Segmentar huella dactilar</text><rect fill="#F1F1F1" height="33.9688" rx="12.5" ry="12.5" style="stroke:#181818;stroke-width:0.5;" width="180.2656" x="221.1866" y="407.8125"/><text fill="#000000" font-family="sans-serif" font-size="12" lengthAdjust="spacing" textLength="160.2656" x="231.1866" y="428.9512">Mejorar calidad de imagen</text><rect fill="#F1F1F1" height="33.9688" rx="12.5" ry="12.5" style="stroke:#181818;stroke-width:0.5;" width="219.7051" x="201.4669" y="461.7813"/><text fill="#000000" font-family="sans-serif" font-size="12" lengthAdjust="spacing" textLength="199.7051" x="211.4669" y="482.9199">Detectar vitalidad (anti-spoofing)</text><polygon fill="#F1F1F1" points="272.6771,515.75,349.9618,515.75,361.9618,527.75,349.9618,539.75,272.6771,539.75,260.6771,527.75,272.6771,515.75" style="stroke:#181818;stroke-width:0.5;"/><text fill="#000000" font-family="sans-serif" font-size="11" lengthAdjust="spacing" textLength="77.2847" x="272.6771" y="531.5581">Huella v&#225;lida?</text><text fill="#000000" font-family="sans-serif" font-size="11" lengthAdjust="spacing" textLength="10.0386" x="250.6385" y="525.1558">S&#237;</text><text fill="#000000" font-family="sans-serif" font-size="11" lengthAdjust="spacing" textLength="14.9585" x="361.9618" y="525.1558">No</text><rect fill="#F1F1F1" height="33.9688" rx="12.5" ry="12.5" style="stroke:#181818;stroke-width:0.5;" width="262.291" x="47.8015" y="549.75"/><text fill="#000000" font-family="sans-serif" font-size="12" lengthAdjust="spacing" textLength="242.291" x="57.8015" y="570.8887">Extraer patrones biom&#233;tricos (minucias)</text><rect fill="#F1F1F1" height="33.9688" rx="12.5" ry="12.5" style="stroke:#181818;stroke-width:0.5;" width="193.2793" x="82.3074" y="603.7188"/><text fill="#000000" font-family="sans-serif" font-size="12" lengthAdjust="spacing" textLength="173.2793" x="92.3074" y="624.8574">Comparar con base de datos</text><polygon fill="#F1F1F1" points="107.8311,657.6875,250.063,657.6875,262.063,669.6875,250.063,681.6875,107.8311,681.6875,95.8311,669.6875,107.8311,657.6875" style="stroke:#181818;stroke-width:0.5;"/><text fill="#000000" font-family="sans-serif" font-size="11" lengthAdjust="spacing" textLength="142.2319" x="107.8311" y="673.4956">Coincidencia encontrada?</text><text fill="#000000" font-family="sans-serif" font-size="11" lengthAdjust="spacing" textLength="10.0386" x="85.7925" y="667.0933">S&#237;</text><text fill="#000000" font-family="sans-serif" font-size="11" lengthAdjust="spacing" textLength="14.9585" x="262.063" y="667.0933">No</text><rect fill="#F1F1F1" height="33.9688" rx="12.5" ry="12.5" style="stroke:#181818;stroke-width:0.5;" width="149.6621" x="11" y="691.6875"/><text fill="#000000" font-family="sans-serif" font-size="12" lengthAdjust="spacing" textLength="129.6621" x="21" y="712.8262">Autenticaci&#243;n exitosa</text><rect fill="#F1F1F1" height="33.9688" rx="12.5" ry="12.5" style="stroke:#181818;stroke-width:0.5;" width="122.5801" x="24.541" y="745.6563"/><text fill="#000000" font-family="sans-serif" font-size="12" lengthAdjust="spacing" textLength="102.5801" x="34.541" y="766.7949">Conceder acceso</text><rect fill="#F1F1F1" height="33.9688" rx="12.5" ry="12.5" style="stroke:#181818;stroke-width:0.5;" width="142.7422" x="200.6919" y="691.6875"/><text fill="#000000" font-family="sans-serif" font-size="12" lengthAdjust="spacing" textLength="122.7422" x="210.6919" y="712.8262">Autenticaci&#243;n fallida</text><rect fill="#F1F1F1" height="33.9688" rx="12.5" ry="12.5" style="stroke:#181818;stroke-width:0.5;" width="155.8965" x="194.1147" y="745.6563"/><text fill="#000000" font-family="sans-serif" font-size="12" lengthAdjust="spacing" textLength="135.8965" x="204.1147" y="766.7949">Solicitar nuevo intento</text><polygon fill="#F1F1F1" points="178.947,785.625,190.947,797.625,178.947,809.625,166.947,797.625,178.947,785.625" style="stroke:#181818;stroke-width:0.5;"/><rect fill="#F1F1F1" height="33.9688" rx="12.5" ry="12.5" style="stroke:#181818;stroke-width:0.5;" width="124.3438" x="381.52" y="549.75"/><text fill="#000000" font-family="sans-serif" font-size="12" lengthAdjust="spacing" textLength="104.3438" x="391.52" y="570.8887">Huella rechazada</text><rect fill="#F1F1F1" height="33.9688" rx="12.5" ry="12.5" style="stroke:#181818;stroke-width:0.5;" width="127.3613" x="380.0112" y="603.7188"/><text fill="#000000" font-family="sans-serif" font-size="12" lengthAdjust="spacing" textLength="107.3613" x="390.0112" y="624.8574">Solicitar reintento</text><polygon fill="#F1F1F1" points="311.3195,815.625,323.3195,827.625,311.3195,839.625,299.3195,827.625,311.3195,815.625" style="stroke:#181818;stroke-width:0.5;"/><rect fill="#F1F1F1" height="33.9688" rx="12.5" ry="12.5" style="stroke:#181818;stroke-width:0.5;" width="207.0488" x="537.3726" y="191.9375"/><text fill="#000000" font-family="sans-serif" font-size="12" lengthAdjust="spacing" textLength="187.0488" x="547.3726" y="213.0762">Esperar interacci&#243;n del usuario</text><polygon fill="#F1F1F1" points="476.1082,845.625,488.1082,857.625,476.1082,869.625,464.1082,857.625,476.1082,845.625" style="stroke:#181818;stroke-width:0.5;"/><ellipse cx="476.1082" cy="900.625" fill="#FFFFFF" fill-opacity="0.00000" rx="11" ry="11" style="stroke:#222222;stroke-width:1;"/><ellipse cx="476.1082" cy="900.625" fill="#222222" rx="6" ry="6" style="stroke:#222222;stroke-width:1;"/><line style="stroke:#181818;stroke-width:1;" x1="476.1082" x2="476.1082" y1="30" y2="50"/><polygon fill="#181818" points="472.1082,40,476.1082,50,480.1082,40,476.1082,44" style="stroke:#181818;stroke-width:1;"/><line style="stroke:#181818;stroke-width:1;" x1="476.1082" x2="476.1082" y1="83.9688" y2="103.9688"/><polygon fill="#181818" points="472.1082,93.9688,476.1082,103.9688,480.1082,93.9688,476.1082,97.9688" style="stroke:#181818;stroke-width:1;"/><line style="stroke:#181818;stroke-width:1;" x1="311.3195" x2="311.3195" y1="225.9063" y2="245.9063"/><polygon fill="#181818" points="307.3195,235.9063,311.3195,245.9063,315.3195,235.9063,311.3195,239.9063" style="stroke:#181818;stroke-width:1;"/><line style="stroke:#181818;stroke-width:1;" x1="311.3195" x2="311.3195" y1="279.875" y2="299.875"/><polygon fill="#181818" points="307.3195,289.875,311.3195,299.875,315.3195,289.875,311.3195,293.875" style="stroke:#181818;stroke-width:1;"/><line style="stroke:#181818;stroke-width:1;" x1="311.3195" x2="311.3195" y1="333.8438" y2="353.8438"/><polygon fill="#181818" points="307.3195,343.8438,311.3195,353.8438,315.3195,343.8438,311.3195,347.8438" style="stroke:#181818;stroke-width:1;"/><line style="stroke:#181818;stroke-width:1;" x1="311.3195" x2="311.3195" y1="387.8125" y2="407.8125"/><polygon fill="#181818" points="307.3195,397.8125,311.3195,407.8125,315.3195,397.8125,311.3195,401.8125" style="stroke:#181818;stroke-width:1;"/><line style="stroke:#181818;stroke-width:1;" x1="311.3195" x2="311.3195" y1="441.7813" y2="461.7813"/><polygon fill="#181818" points="307.3195,451.7813,311.3195,461.7813,315.3195,451.7813,311.3195,455.7813" style="stroke:#181818;stroke-width:1;"/><line style="stroke:#181818;stroke-width:1;" x1="178.947" x2="178.947" y1="583.7188" y2="603.7188"/><polygon fill="#181818" points="174.947,593.7188,178.947,603.7188,182.947,593.7188,178.947,597.7188" style="stroke:#181818;stroke-width:1;"/><line style="stroke:#181818;stroke-width:1;" x1="85.8311" x2="85.8311" y1="725.6563" y2="745.6563"/><polygon fill="#181818" points="81.8311,735.6563,85.8311,745.6563,89.8311,735.6563,85.8311,739.6563" style="stroke:#181818;stroke-width:1;"/><line style="stroke:#181818;stroke-width:1;" x1="272.063" x2="272.063" y1="725.6563" y2="745.6563"/><polygon fill="#181818" points="268.063,735.6563,272.063,745.6563,276.063,735.6563,272.063,739.6563" style="stroke:#181818;stroke-width:1;"/><line style="stroke:#181818;stroke-width:1;" x1="95.8311" x2="85.8311" y1="669.6875" y2="669.6875"/><line style="stroke:#181818;stroke-width:1;" x1="85.8311" x2="85.8311" y1="669.6875" y2="691.6875"/><polygon fill="#181818" points="81.8311,681.6875,85.8311,691.6875,89.8311,681.6875,85.8311,685.6875" style="stroke:#181818;stroke-width:1;"/><line style="stroke:#181818;stroke-width:1;" x1="262.063" x2="272.063" y1="669.6875" y2="669.6875"/><line style="stroke:#181818;stroke-width:1;" x1="272.063" x2="272.063" y1="669.6875" y2="691.6875"/><polygon fill="#181818" points="268.063,681.6875,272.063,691.6875,276.063,681.6875,272.063,685.6875" style="stroke:#181818;stroke-width:1;"/><line style="stroke:#181818;stroke-width:1;" x1="85.8311" x2="85.8311" y1="779.625" y2="797.625"/><line style="stroke:#181818;stroke-width:1;" x1="85.8311" x2="166.947" y1="797.625" y2="797.625"/><polygon fill="#181818" points="156.947,793.625,166.947,797.625,156.947,801.625,160.947,797.625" style="stroke:#181818;stroke-width:1;"/><line style="stroke:#181818;stroke-width:1;" x1="272.063" x2="272.063" y1="779.625" y2="797.625"/><line style="stroke:#181818;stroke-width:1;" x1="272.063" x2="190.947" y1="797.625" y2="797.625"/><polygon fill="#181818" points="200.947,793.625,190.947,797.625,200.947,801.625,196.947,797.625" style="stroke:#181818;stroke-width:1;"/><line style="stroke:#181818;stroke-width:1;" x1="178.947" x2="178.947" y1="637.6875" y2="657.6875"/><polygon fill="#181818" points="174.947,647.6875,178.947,657.6875,182.947,647.6875,178.947,651.6875" style="stroke:#181818;stroke-width:1;"/><line style="stroke:#181818;stroke-width:1;" x1="443.6919" x2="443.6919" y1="583.7188" y2="603.7188"/><polygon fill="#181818" points="439.6919,593.7188,443.6919,603.7188,447.6919,593.7188,443.6919,597.7188" style="stroke:#181818;stroke-width:1;"/><line style="stroke:#181818;stroke-width:1;" x1="260.6771" x2="178.947" y1="527.75" y2="527.75"/><line style="stroke:#181818;stroke-width:1;" x1="178.947" x2="178.947" y1="527.75" y2="549.75"/><polygon fill="#181818" points="174.947,539.75,178.947,549.75,182.947,539.75,178.947,543.75" style="stroke:#181818;stroke-width:1;"/><line style="stroke:#181818;stroke-width:1;" x1="361.9618" x2="443.6919" y1="527.75" y2="527.75"/><line style="stroke:#181818;stroke-width:1;" x1="443.6919" x2="443.6919" y1="527.75" y2="549.75"/><polygon fill="#181818" points="439.6919,539.75,443.6919,549.75,447.6919,539.75,443.6919,543.75" style="stroke:#181818;stroke-width:1;"/><line style="stroke:#181818;stroke-width:1;" x1="178.947" x2="178.947" y1="809.625" y2="827.625"/><line style="stroke:#181818;stroke-width:1;" x1="178.947" x2="299.3195" y1="827.625" y2="827.625"/><polygon fill="#181818" points="289.3195,823.625,299.3195,827.625,289.3195,831.625,293.3195,827.625" style="stroke:#181818;stroke-width:1;"/><line style="stroke:#181818;stroke-width:1;" x1="443.6919" x2="443.6919" y1="637.6875" y2="827.625"/><line style="stroke:#181818;stroke-width:1;" x1="443.6919" x2="323.3195" y1="827.625" y2="827.625"/><polygon fill="#181818" points="333.3195,823.625,323.3195,827.625,333.3195,831.625,329.3195,827.625" style="stroke:#181818;stroke-width:1;"/><line style="stroke:#181818;stroke-width:1;" x1="311.3195" x2="311.3195" y1="495.75" y2="515.75"/><polygon fill="#181818" points="307.3195,505.75,311.3195,515.75,315.3195,505.75,311.3195,509.75" style="stroke:#181818;stroke-width:1;"/><line style="stroke:#181818;stroke-width:1;" x1="417.1434" x2="311.3195" y1="169.9375" y2="169.9375"/><line style="stroke:#181818;stroke-width:1;" x1="311.3195" x2="311.3195" y1="169.9375" y2="191.9375"/><polygon fill="#181818" points="307.3195,181.9375,311.3195,191.9375,315.3195,181.9375,311.3195,185.9375" style="stroke:#181818;stroke-width:1;"/><line style="stroke:#181818;stroke-width:1;" x1="535.0731" x2="640.897" y1="169.9375" y2="169.9375"/><line style="stroke:#181818;stroke-width:1;" x1="640.897" x2="640.897" y1="169.9375" y2="191.9375"/><polygon fill="#181818" points="636.897,181.9375,640.897,191.9375,644.897,181.9375,640.897,185.9375" style="stroke:#181818;stroke-width:1;"/><line style="stroke:#181818;stroke-width:1;" x1="311.3195" x2="311.3195" y1="839.625" y2="857.625"/><line style="stroke:#181818;stroke-width:1;" x1="311.3195" x2="464.1082" y1="857.625" y2="857.625"/><polygon fill="#181818" points="454.1082,853.625,464.1082,857.625,454.1082,861.625,458.1082,857.625" style="stroke:#181818;stroke-width:1;"/><line style="stroke:#181818;stroke-width:1;" x1="640.897" x2="640.897" y1="225.9063" y2="857.625"/><line style="stroke:#181818;stroke-width:1;" x1="640.897" x2="488.1082" y1="857.625" y2="857.625"/><polygon fill="#181818" points="498.1082,853.625,488.1082,857.625,498.1082,861.625,494.1082,857.625" style="stroke:#181818;stroke-width:1;"/><line style="stroke:#181818;stroke-width:1;" x1="476.1082" x2="476.1082" y1="137.9375" y2="157.9375"/><polygon fill="#181818" points="472.1082,147.9375,476.1082,157.9375,480.1082,147.9375,476.1082,151.9375" style="stroke:#181818;stroke-width:1;"/><line style="stroke:#181818;stroke-width:1;" x1="476.1082" x2="476.1082" y1="869.625" y2="889.625"/><polygon fill="#181818" points="472.1082,879.625,476.1082,889.625,480.1082,879.625,476.1082,883.625" style="stroke:#181818;stroke-width:1;"/><!--SRC=[VP9DJiD038NtESKiqmKNI1O8fKKWKK0g5p0pRciq6KVpKo5kmv85AuwGY-590gJyHKeMyVFdvpSJ8lXO5DMb8qtWLQ0GiOMwg9OOKKjLTHu3EgagWrPUmqgpK_8li5TtV5uNj5NbCXVCs6JuTA7Y7fqgD_theb3oL6Swqa5uRVzcairQHJQrv41J_-RKrMfPZye6kfYyIAc5dK1cuvhrpMPItNhM63vLqzyDxbfqsVS-eRLY6cIk1J_Lr_Z06Qt1aW4pk9ZtVwvze3X9Id2HJaB7l2MtMzJ5eCmxNumZ3lrpLlxSUI2k7gC7b1mXUdOOr3rnsxz4Jvg3AYM09E66HVtLqd3RmU1IDh-7WDccWSXX6lvXe66Iap7ZySYNdSpwoybu2YbAFAIdqF6HX0hriQXXfz68Pz0ICNzLqOgNyfh_Xsx1vZo-GJTivOxbQ5t20ojokMaETuQsnUzZgYbgZteFJp27py0UZw0Zy1XMhKA7mzqIfPVz1iVvPgUGm9EqZcr5YDoz0m00]--></g></svg>