<svg xmlns="http://www.w3.org/2000/svg" xmlns:xlink="http://www.w3.org/1999/xlink" contentStyleType="text/css" data-diagram-type="CLASS" height="872px" preserveAspectRatio="none" style="width:1340px;height:872px;background:#FFFFFF;" version="1.1" viewBox="0 0 1340 872" width="1340px" zoomAndPan="magnify"><defs/><g><!--class SistemaBiometrico--><g id="elem_SistemaBiometrico"><rect codeLine="1" fill="#F1F1F1" height="145.7813" id="SistemaBiometrico" rx="2.5" ry="2.5" style="stroke:#181818;stroke-width:0.5;" width="343.3379" x="600.49" y="403.67"/><ellipse cx="701.8601" cy="419.67" fill="#ADD1B2" rx="11" ry="11" style="stroke:#181818;stroke-width:1;"/><path d="M704.8289,425.3106 Q704.2507,425.6075 703.6101,425.7481 Q702.9695,425.9044 702.2664,425.9044 Q699.7664,425.9044 698.4382,424.2638 Q697.1257,422.6075 697.1257,419.4825 Q697.1257,416.3575 698.4382,414.7013 Q699.7664,413.045 702.2664,413.045 Q702.9695,413.045 703.6101,413.2013 Q704.2664,413.3575 704.8289,413.6544 L704.8289,416.3731 Q704.2039,415.795 703.6101,415.5294 Q703.0164,415.2481 702.3914,415.2481 Q701.0476,415.2481 700.3601,416.3263 Q699.6726,417.3888 699.6726,419.4825 Q699.6726,421.5763 700.3601,422.6544 Q701.0476,423.7169 702.3914,423.7169 Q703.0164,423.7169 703.6101,423.4513 Q704.2039,423.17 704.8289,422.5919 L704.8289,425.3106 Z " fill="#000000"/><text fill="#000000" font-family="sans-serif" font-size="14" lengthAdjust="spacing" textLength="132.0977" x="722.3601" y="424.5167">SistemaBiometrico</text><line style="stroke:#181818;stroke-width:0.5;" x1="601.49" x2="942.8279" y1="435.67" y2="435.67"/><rect fill="#FFFFFF" fill-opacity="0.00000" height="6" style="stroke:#C82930;stroke-width:1;" width="6" x="608.49" y="446.3184"/><text fill="#000000" font-family="sans-serif" font-size="14" lengthAdjust="spacing" textLength="202.4189" x="620.49" y="452.6651">baseDatosHuella: BaseDatos</text><rect fill="#FFFFFF" fill-opacity="0.00000" height="6" style="stroke:#C82930;stroke-width:1;" width="6" x="608.49" y="462.6153"/><text fill="#000000" font-family="sans-serif" font-size="14" lengthAdjust="spacing" textLength="224.3213" x="620.49" y="468.962">moduloCaptura: ModuloCaptura</text><rect fill="#FFFFFF" fill-opacity="0.00000" height="6" style="stroke:#C82930;stroke-width:1;" width="6" x="608.49" y="478.9122"/><text fill="#000000" font-family="sans-serif" font-size="14" lengthAdjust="spacing" textLength="217.3623" x="620.49" y="485.2589">moduloIluminacion: ModuloLuz</text><rect fill="#FFFFFF" fill-opacity="0.00000" height="6" style="stroke:#C82930;stroke-width:1;" width="6" x="608.49" y="495.2091"/><text fill="#000000" font-family="sans-serif" font-size="14" lengthAdjust="spacing" textLength="317.3379" x="620.49" y="501.5557">procesadorBiometrico: ProcesadorBiometrico</text><line style="stroke:#181818;stroke-width:0.5;" x1="601.49" x2="942.8279" y1="508.8575" y2="508.8575"/><ellipse cx="611.49" cy="522.5059" fill="#84BE84" rx="3" ry="3" style="stroke:#038048;stroke-width:1;"/><text fill="#000000" font-family="sans-serif" font-size="14" lengthAdjust="spacing" textLength="192.9922" x="620.49" y="525.8526">autenticarHuella(): Boolean</text><ellipse cx="611.49" cy="538.8028" fill="#84BE84" rx="3" ry="3" style="stroke:#038048;stroke-width:1;"/><text fill="#000000" font-family="sans-serif" font-size="14" lengthAdjust="spacing" textLength="154.1094" x="620.49" y="542.1495">registrarHuella(): void</text></g><!--class Usuario--><g id="elem_Usuario"><rect codeLine="10" fill="#F1F1F1" height="113.1875" id="Usuario" rx="2.5" ry="2.5" style="stroke:#181818;stroke-width:0.5;" width="253.9375" x="888.19" y="213.48"/><ellipse cx="984.3067" cy="229.48" fill="#ADD1B2" rx="11" ry="11" style="stroke:#181818;stroke-width:1;"/><path d="M987.2754,235.1206 Q986.6973,235.4175 986.0567,235.5581 Q985.4161,235.7144 984.7129,235.7144 Q982.2129,235.7144 980.8848,234.0738 Q979.5723,232.4175 979.5723,229.2925 Q979.5723,226.1675 980.8848,224.5113 Q982.2129,222.855 984.7129,222.855 Q985.4161,222.855 986.0567,223.0113 Q986.7129,223.1675 987.2754,223.4644 L987.2754,226.1831 Q986.6504,225.605 986.0567,225.3394 Q985.4629,225.0581 984.8379,225.0581 Q983.4942,225.0581 982.8067,226.1363 Q982.1192,227.1988 982.1192,229.2925 Q982.1192,231.3863 982.8067,232.4644 Q983.4942,233.5269 984.8379,233.5269 Q985.4629,233.5269 986.0567,233.2613 Q986.6504,232.98 987.2754,232.4019 L987.2754,235.1206 Z " fill="#000000"/><text fill="#000000" font-family="sans-serif" font-size="14" lengthAdjust="spacing" textLength="53.2041" x="1004.8067" y="234.3267">Usuario</text><line style="stroke:#181818;stroke-width:0.5;" x1="889.19" x2="1141.1275" y1="245.48" y2="245.48"/><rect fill="#FFFFFF" fill-opacity="0.00000" height="6" style="stroke:#C82930;stroke-width:1;" width="6" x="896.19" y="256.1284"/><text fill="#000000" font-family="sans-serif" font-size="14" lengthAdjust="spacing" textLength="63.7246" x="908.19" y="262.4751">id: String</text><rect fill="#FFFFFF" fill-opacity="0.00000" height="6" style="stroke:#C82930;stroke-width:1;" width="6" x="896.19" y="272.4253"/><text fill="#000000" font-family="sans-serif" font-size="14" lengthAdjust="spacing" textLength="105.2803" x="908.19" y="278.772">nombre: String</text><rect fill="#FFFFFF" fill-opacity="0.00000" height="6" style="stroke:#C82930;stroke-width:1;" width="6" x="896.19" y="288.7222"/><text fill="#000000" font-family="sans-serif" font-size="14" lengthAdjust="spacing" textLength="139.3506" x="908.19" y="295.0689">credenciales: String</text><line style="stroke:#181818;stroke-width:0.5;" x1="889.19" x2="1141.1275" y1="302.3706" y2="302.3706"/><ellipse cx="899.19" cy="316.0191" fill="#84BE84" rx="3" ry="3" style="stroke:#038048;stroke-width:1;"/><text fill="#000000" font-family="sans-serif" font-size="14" lengthAdjust="spacing" textLength="227.9375" x="908.19" y="319.3657">solicitarAutenticacion(): Boolean</text></g><!--class Administrador--><g id="elem_Administrador"><rect codeLine="17" fill="#F1F1F1" height="129.4844" id="Administrador" rx="2.5" ry="2.5" style="stroke:#181818;stroke-width:0.5;" width="239.2539" x="581.54" y="7"/><ellipse cx="647.3769" cy="23" fill="#ADD1B2" rx="11" ry="11" style="stroke:#181818;stroke-width:1;"/><path d="M650.3457,28.6406 Q649.7675,28.9375 649.1269,29.0781 Q648.4863,29.2344 647.7832,29.2344 Q645.2832,29.2344 643.955,27.5938 Q642.6425,25.9375 642.6425,22.8125 Q642.6425,19.6875 643.955,18.0313 Q645.2832,16.375 647.7832,16.375 Q648.4863,16.375 649.1269,16.5313 Q649.7832,16.6875 650.3457,16.9844 L650.3457,19.7031 Q649.7207,19.125 649.1269,18.8594 Q648.5332,18.5781 647.9082,18.5781 Q646.5644,18.5781 645.8769,19.6563 Q645.1894,20.7188 645.1894,22.8125 Q645.1894,24.9063 645.8769,25.9844 Q646.5644,27.0469 647.9082,27.0469 Q648.5332,27.0469 649.1269,26.7813 Q649.7207,26.5 650.3457,25.9219 L650.3457,28.6406 Z " fill="#000000"/><text fill="#000000" font-family="sans-serif" font-size="14" lengthAdjust="spacing" textLength="99.0801" x="667.8769" y="27.8467">Administrador</text><line style="stroke:#181818;stroke-width:0.5;" x1="582.54" x2="819.7939" y1="39" y2="39"/><rect fill="#FFFFFF" fill-opacity="0.00000" height="6" style="stroke:#C82930;stroke-width:1;" width="6" x="589.54" y="49.6484"/><text fill="#000000" font-family="sans-serif" font-size="14" lengthAdjust="spacing" textLength="63.7246" x="601.54" y="55.9951">id: String</text><rect fill="#FFFFFF" fill-opacity="0.00000" height="6" style="stroke:#C82930;stroke-width:1;" width="6" x="589.54" y="65.9453"/><text fill="#000000" font-family="sans-serif" font-size="14" lengthAdjust="spacing" textLength="105.2803" x="601.54" y="72.292">nombre: String</text><line style="stroke:#181818;stroke-width:0.5;" x1="582.54" x2="819.7939" y1="79.5938" y2="79.5938"/><ellipse cx="592.54" cy="93.2422" fill="#84BE84" rx="3" ry="3" style="stroke:#038048;stroke-width:1;"/><text fill="#000000" font-family="sans-serif" font-size="14" lengthAdjust="spacing" textLength="211.1826" x="601.54" y="96.5889">agregarUsuario(Usuario): void</text><ellipse cx="592.54" cy="109.5391" fill="#84BE84" rx="3" ry="3" style="stroke:#038048;stroke-width:1;"/><text fill="#000000" font-family="sans-serif" font-size="14" lengthAdjust="spacing" textLength="213.2539" x="601.54" y="112.8857">eliminarUsuario(Usuario): void</text><ellipse cx="592.54" cy="125.8359" fill="#84BE84" rx="3" ry="3" style="stroke:#038048;stroke-width:1;"/><text fill="#000000" font-family="sans-serif" font-size="14" lengthAdjust="spacing" textLength="167.3301" x="601.54" y="129.1826">gestionarHuellas(): void</text></g><!--class ModuloCaptura--><g id="elem_ModuloCaptura"><rect codeLine="25" fill="#F1F1F1" height="96.8906" id="ModuloCaptura" rx="2.5" ry="2.5" style="stroke:#181818;stroke-width:0.5;" width="213.0723" x="202.63" y="610.45"/><ellipse cx="251.5172" cy="626.45" fill="#ADD1B2" rx="11" ry="11" style="stroke:#181818;stroke-width:1;"/><path d="M254.486,632.0906 Q253.9078,632.3875 253.2672,632.5281 Q252.6266,632.6844 251.9235,632.6844 Q249.4235,632.6844 248.0953,631.0438 Q246.7828,629.3875 246.7828,626.2625 Q246.7828,623.1375 248.0953,621.4813 Q249.4235,619.825 251.9235,619.825 Q252.6266,619.825 253.2672,619.9813 Q253.9235,620.1375 254.486,620.4344 L254.486,623.1531 Q253.861,622.575 253.2672,622.3094 Q252.6735,622.0281 252.0485,622.0281 Q250.7047,622.0281 250.0172,623.1063 Q249.3297,624.1688 249.3297,626.2625 Q249.3297,628.3563 250.0172,629.4344 Q250.7047,630.4969 252.0485,630.4969 Q252.6735,630.4969 253.2672,630.2313 Q253.861,629.95 254.486,629.3719 L254.486,632.0906 Z " fill="#000000"/><text fill="#000000" font-family="sans-serif" font-size="14" lengthAdjust="spacing" textLength="106.7979" x="272.0172" y="631.2967">ModuloCaptura</text><line style="stroke:#181818;stroke-width:0.5;" x1="203.63" x2="414.7023" y1="642.45" y2="642.45"/><rect fill="#FFFFFF" fill-opacity="0.00000" height="6" style="stroke:#C82930;stroke-width:1;" width="6" x="210.63" y="653.0984"/><text fill="#000000" font-family="sans-serif" font-size="14" lengthAdjust="spacing" textLength="187.0723" x="222.63" y="659.4451">sensorCMOS: SensorCMOS</text><rect fill="#FFFFFF" fill-opacity="0.00000" height="6" style="stroke:#C82930;stroke-width:1;" width="6" x="210.63" y="669.3953"/><text fill="#000000" font-family="sans-serif" font-size="14" lengthAdjust="spacing" textLength="153.8906" x="222.63" y="675.742">sensorToF: SensorToF</text><line style="stroke:#181818;stroke-width:0.5;" x1="203.63" x2="414.7023" y1="683.0438" y2="683.0438"/><ellipse cx="213.63" cy="696.6922" fill="#84BE84" rx="3" ry="3" style="stroke:#038048;stroke-width:1;"/><text fill="#000000" font-family="sans-serif" font-size="14" lengthAdjust="spacing" textLength="185.1445" x="222.63" y="700.0389">capturarImagen(): Imagen</text></g><!--class SensorCMOS--><g id="elem_SensorCMOS"><rect codeLine="31" fill="#F1F1F1" height="80.5938" id="SensorCMOS" rx="2.5" ry="2.5" style="stroke:#181818;stroke-width:0.5;" width="206.3252" x="7" y="776.49"/><ellipse cx="61.0381" cy="792.49" fill="#ADD1B2" rx="11" ry="11" style="stroke:#181818;stroke-width:1;"/><path d="M64.0068,798.1306 Q63.4287,798.4275 62.7881,798.5681 Q62.1475,798.7244 61.4443,798.7244 Q58.9443,798.7244 57.6162,797.0838 Q56.3037,795.4275 56.3037,792.3025 Q56.3037,789.1775 57.6162,787.5213 Q58.9443,785.865 61.4443,785.865 Q62.1475,785.865 62.7881,786.0213 Q63.4443,786.1775 64.0068,786.4744 L64.0068,789.1931 Q63.3818,788.615 62.7881,788.3494 Q62.1943,788.0681 61.5693,788.0681 Q60.2256,788.0681 59.5381,789.1463 Q58.8506,790.2088 58.8506,792.3025 Q58.8506,794.3963 59.5381,795.4744 Q60.2256,796.5369 61.5693,796.5369 Q62.1943,796.5369 62.7881,796.2713 Q63.3818,795.99 64.0068,795.4119 L64.0068,798.1306 Z " fill="#000000"/><text fill="#000000" font-family="sans-serif" font-size="14" lengthAdjust="spacing" textLength="89.749" x="81.5381" y="797.3367">SensorCMOS</text><line style="stroke:#181818;stroke-width:0.5;" x1="8" x2="212.3252" y1="808.49" y2="808.49"/><rect fill="#FFFFFF" fill-opacity="0.00000" height="6" style="stroke:#C82930;stroke-width:1;" width="6" x="15" y="819.1384"/><text fill="#000000" font-family="sans-serif" font-size="14" lengthAdjust="spacing" textLength="122.9648" x="27" y="825.4851">resolucion: String</text><line style="stroke:#181818;stroke-width:0.5;" x1="8" x2="212.3252" y1="832.7869" y2="832.7869"/><ellipse cx="18" cy="846.4353" fill="#84BE84" rx="3" ry="3" style="stroke:#038048;stroke-width:1;"/><text fill="#000000" font-family="sans-serif" font-size="14" lengthAdjust="spacing" textLength="180.3252" x="27" y="849.782">obtenerImagen(): Imagen</text></g><!--class SensorToF--><g id="elem_SensorToF"><rect codeLine="36" fill="#F1F1F1" height="96.8906" id="SensorToF" rx="2.5" ry="2.5" style="stroke:#181818;stroke-width:0.5;" width="201.5537" x="248.39" y="768.34"/><ellipse cx="308.3378" cy="784.34" fill="#ADD1B2" rx="11" ry="11" style="stroke:#181818;stroke-width:1;"/><path d="M311.3065,789.9806 Q310.7284,790.2775 310.0878,790.4181 Q309.4471,790.5744 308.744,790.5744 Q306.244,790.5744 304.9159,788.9338 Q303.6034,787.2775 303.6034,784.1525 Q303.6034,781.0275 304.9159,779.3713 Q306.244,777.715 308.744,777.715 Q309.4471,777.715 310.0878,777.8713 Q310.744,778.0275 311.3065,778.3244 L311.3065,781.0431 Q310.6815,780.465 310.0878,780.1994 Q309.494,779.9181 308.869,779.9181 Q307.5253,779.9181 306.8378,780.9963 Q306.1503,782.0588 306.1503,784.1525 Q306.1503,786.2463 306.8378,787.3244 Q307.5253,788.3869 308.869,788.3869 Q309.494,788.3869 310.0878,788.1213 Q310.6815,787.84 311.3065,787.2619 L311.3065,789.9806 Z " fill="#000000"/><text fill="#000000" font-family="sans-serif" font-size="14" lengthAdjust="spacing" textLength="73.1582" x="328.8378" y="789.1867">SensorToF</text><line style="stroke:#181818;stroke-width:0.5;" x1="249.39" x2="448.9437" y1="800.34" y2="800.34"/><rect fill="#FFFFFF" fill-opacity="0.00000" height="6" style="stroke:#C82930;stroke-width:1;" width="6" x="256.39" y="810.9884"/><text fill="#000000" font-family="sans-serif" font-size="14" lengthAdjust="spacing" textLength="121.9531" x="268.39" y="817.3351">distancia: Double</text><rect fill="#FFFFFF" fill-opacity="0.00000" height="6" style="stroke:#C82930;stroke-width:1;" width="6" x="256.39" y="827.2853"/><text fill="#000000" font-family="sans-serif" font-size="14" lengthAdjust="spacing" textLength="133.4922" x="268.39" y="833.632">inclinacion: Double</text><line style="stroke:#181818;stroke-width:0.5;" x1="249.39" x2="448.9437" y1="840.9338" y2="840.9338"/><ellipse cx="259.39" cy="854.5822" fill="#84BE84" rx="3" ry="3" style="stroke:#038048;stroke-width:1;"/><text fill="#000000" font-family="sans-serif" font-size="14" lengthAdjust="spacing" textLength="175.5537" x="268.39" y="857.9289">medirDistancia(): Double</text></g><!--class ModuloLuz--><g id="elem_ModuloLuz"><rect codeLine="42" fill="#F1F1F1" height="80.5938" id="ModuloLuz" rx="2.5" ry="2.5" style="stroke:#181818;stroke-width:0.5;" width="204.8896" x="450.72" y="618.6"/><ellipse cx="511.4744" cy="634.6" fill="#ADD1B2" rx="11" ry="11" style="stroke:#181818;stroke-width:1;"/><path d="M514.4431,640.2406 Q513.865,640.5375 513.2244,640.6781 Q512.5838,640.8344 511.8806,640.8344 Q509.3806,640.8344 508.0525,639.1938 Q506.74,637.5375 506.74,634.4125 Q506.74,631.2875 508.0525,629.6313 Q509.3806,627.975 511.8806,627.975 Q512.5838,627.975 513.2244,628.1313 Q513.8806,628.2875 514.4431,628.5844 L514.4431,631.3031 Q513.8181,630.725 513.2244,630.4594 Q512.6306,630.1781 512.0056,630.1781 Q510.6619,630.1781 509.9744,631.2563 Q509.2869,632.3188 509.2869,634.4125 Q509.2869,636.5063 509.9744,637.5844 Q510.6619,638.6469 512.0056,638.6469 Q512.6306,638.6469 513.2244,638.3813 Q513.8181,638.1 514.4431,637.5219 L514.4431,640.2406 Z " fill="#000000"/><text fill="#000000" font-family="sans-serif" font-size="14" lengthAdjust="spacing" textLength="74.8809" x="531.9744" y="639.4467">ModuloLuz</text><line style="stroke:#181818;stroke-width:0.5;" x1="451.72" x2="654.6096" y1="650.6" y2="650.6"/><rect fill="#FFFFFF" fill-opacity="0.00000" height="6" style="stroke:#C82930;stroke-width:1;" width="6" x="458.72" y="661.2484"/><text fill="#000000" font-family="sans-serif" font-size="14" lengthAdjust="spacing" textLength="113.21" x="470.72" y="667.5951">leds: List&lt;LED&gt;</text><line style="stroke:#181818;stroke-width:0.5;" x1="451.72" x2="654.6096" y1="674.8969" y2="674.8969"/><ellipse cx="461.72" cy="688.5453" fill="#84BE84" rx="3" ry="3" style="stroke:#038048;stroke-width:1;"/><text fill="#000000" font-family="sans-serif" font-size="14" lengthAdjust="spacing" textLength="178.8896" x="470.72" y="691.892">activarIluminacion(): void</text></g><!--class ProcesadorBiometrico--><g id="elem_ProcesadorBiometrico"><rect codeLine="47" fill="#F1F1F1" height="96.8906" id="ProcesadorBiometrico" rx="2.5" ry="2.5" style="stroke:#181818;stroke-width:0.5;" width="308.707" x="690.81" y="610.45"/><ellipse cx="763.9819" cy="626.45" fill="#ADD1B2" rx="11" ry="11" style="stroke:#181818;stroke-width:1;"/><path d="M766.9506,632.0906 Q766.3725,632.3875 765.7319,632.5281 Q765.0913,632.6844 764.3881,632.6844 Q761.8881,632.6844 760.56,631.0438 Q759.2475,629.3875 759.2475,626.2625 Q759.2475,623.1375 760.56,621.4813 Q761.8881,619.825 764.3881,619.825 Q765.0913,619.825 765.7319,619.9813 Q766.3881,620.1375 766.9506,620.4344 L766.9506,623.1531 Q766.3256,622.575 765.7319,622.3094 Q765.1381,622.0281 764.5131,622.0281 Q763.1694,622.0281 762.4819,623.1063 Q761.7944,624.1688 761.7944,626.2625 Q761.7944,628.3563 762.4819,629.4344 Q763.1694,630.4969 764.5131,630.4969 Q765.1381,630.4969 765.7319,630.2313 Q766.3256,629.95 766.9506,629.3719 L766.9506,632.0906 Z " fill="#000000"/><text fill="#000000" font-family="sans-serif" font-size="14" lengthAdjust="spacing" textLength="153.8633" x="784.4819" y="631.2967">ProcesadorBiometrico</text><line style="stroke:#181818;stroke-width:0.5;" x1="691.81" x2="998.517" y1="642.45" y2="642.45"/><rect fill="#FFFFFF" fill-opacity="0.00000" height="6" style="stroke:#C82930;stroke-width:1;" width="6" x="698.81" y="653.0984"/><text fill="#000000" font-family="sans-serif" font-size="14" lengthAdjust="spacing" textLength="218.8115" x="710.81" y="659.4451">algoritmoSegmentacion: String</text><rect fill="#FFFFFF" fill-opacity="0.00000" height="6" style="stroke:#C82930;stroke-width:1;" width="6" x="698.81" y="669.3953"/><text fill="#000000" font-family="sans-serif" font-size="14" lengthAdjust="spacing" textLength="207.5186" x="710.81" y="675.742">algoritmoAntiSpoofing: String</text><line style="stroke:#181818;stroke-width:0.5;" x1="691.81" x2="998.517" y1="683.0438" y2="683.0438"/><ellipse cx="701.81" cy="696.6922" fill="#84BE84" rx="3" ry="3" style="stroke:#038048;stroke-width:1;"/><text fill="#000000" font-family="sans-serif" font-size="14" lengthAdjust="spacing" textLength="282.707" x="710.81" y="700.0389">procesarHuella(Imagen): Caracteristicas</text></g><!--class BaseDatos--><g id="elem_BaseDatos"><rect codeLine="53" fill="#F1F1F1" height="96.8906" id="BaseDatos" rx="2.5" ry="2.5" style="stroke:#181818;stroke-width:0.5;" width="298.6172" x="1034.85" y="610.45"/><ellipse cx="1142.5092" cy="626.45" fill="#ADD1B2" rx="11" ry="11" style="stroke:#181818;stroke-width:1;"/><path d="M1145.4779,632.0906 Q1144.8998,632.3875 1144.2592,632.5281 Q1143.6186,632.6844 1142.9154,632.6844 Q1140.4154,632.6844 1139.0873,631.0438 Q1137.7748,629.3875 1137.7748,626.2625 Q1137.7748,623.1375 1139.0873,621.4813 Q1140.4154,619.825 1142.9154,619.825 Q1143.6186,619.825 1144.2592,619.9813 Q1144.9154,620.1375 1145.4779,620.4344 L1145.4779,623.1531 Q1144.8529,622.575 1144.2592,622.3094 Q1143.6654,622.0281 1143.0404,622.0281 Q1141.6967,622.0281 1141.0092,623.1063 Q1140.3217,624.1688 1140.3217,626.2625 Q1140.3217,628.3563 1141.0092,629.4344 Q1141.6967,630.4969 1143.0404,630.4969 Q1143.6654,630.4969 1144.2592,630.2313 Q1144.8529,629.95 1145.4779,629.3719 L1145.4779,632.0906 Z " fill="#000000"/><text fill="#000000" font-family="sans-serif" font-size="14" lengthAdjust="spacing" textLength="74.7988" x="1163.0092" y="631.2967">BaseDatos</text><line style="stroke:#181818;stroke-width:0.5;" x1="1035.85" x2="1332.4672" y1="642.45" y2="642.45"/><rect fill="#FFFFFF" fill-opacity="0.00000" height="6" style="stroke:#C82930;stroke-width:1;" width="6" x="1042.85" y="653.0984"/><text fill="#000000" font-family="sans-serif" font-size="14" lengthAdjust="spacing" textLength="234.4795" x="1054.85" y="659.4451">huellasRegistradas: List&lt;Huella&gt;</text><line style="stroke:#181818;stroke-width:0.5;" x1="1035.85" x2="1332.4672" y1="666.7469" y2="666.7469"/><ellipse cx="1045.85" cy="680.3953" fill="#84BE84" rx="3" ry="3" style="stroke:#038048;stroke-width:1;"/><text fill="#000000" font-family="sans-serif" font-size="14" lengthAdjust="spacing" textLength="272.6172" x="1054.85" y="683.742">buscarHuella(Caracteristicas): Boolean</text><ellipse cx="1045.85" cy="696.6922" fill="#84BE84" rx="3" ry="3" style="stroke:#038048;stroke-width:1;"/><text fill="#000000" font-family="sans-serif" font-size="14" lengthAdjust="spacing" textLength="212.666" x="1054.85" y="700.0389">almacenarHuella(Huella): void</text></g><!--class LED--><g id="elem_LED"><rect fill="#F1F1F1" height="48" id="LED" rx="2.5" ry="2.5" style="stroke:#181818;stroke-width:0.5;" width="59.4258" x="523.45" y="792.78"/><ellipse cx="538.45" cy="808.78" fill="#ADD1B2" rx="11" ry="11" style="stroke:#181818;stroke-width:1;"/><path d="M541.4188,814.4206 Q540.8406,814.7175 540.2,814.8581 Q539.5594,815.0144 538.8563,815.0144 Q536.3563,815.0144 535.0281,813.3738 Q533.7156,811.7175 533.7156,808.5925 Q533.7156,805.4675 535.0281,803.8113 Q536.3563,802.155 538.8563,802.155 Q539.5594,802.155 540.2,802.3113 Q540.8563,802.4675 541.4188,802.7644 L541.4188,805.4831 Q540.7938,804.905 540.2,804.6394 Q539.6063,804.3581 538.9813,804.3581 Q537.6375,804.3581 536.95,805.4363 Q536.2625,806.4988 536.2625,808.5925 Q536.2625,810.6863 536.95,811.7644 Q537.6375,812.8269 538.9813,812.8269 Q539.6063,812.8269 540.2,812.5613 Q540.7938,812.28 541.4188,811.7019 L541.4188,814.4206 Z " fill="#000000"/><text fill="#000000" font-family="sans-serif" font-size="14" lengthAdjust="spacing" textLength="27.4258" x="552.45" y="813.6267">LED</text><line style="stroke:#181818;stroke-width:0.5;" x1="524.45" x2="581.8758" y1="824.78" y2="824.78"/><line style="stroke:#181818;stroke-width:0.5;" x1="524.45" x2="581.8758" y1="832.78" y2="832.78"/></g><!--class Huella--><g id="elem_Huella"><rect fill="#F1F1F1" height="48" id="Huella" rx="2.5" ry="2.5" style="stroke:#181818;stroke-width:0.5;" width="76.3721" x="1145.98" y="792.78"/><ellipse cx="1160.98" cy="808.78" fill="#ADD1B2" rx="11" ry="11" style="stroke:#181818;stroke-width:1;"/><path d="M1163.9488,814.4206 Q1163.3706,814.7175 1162.73,814.8581 Q1162.0894,815.0144 1161.3863,815.0144 Q1158.8863,815.0144 1157.5581,813.3738 Q1156.2456,811.7175 1156.2456,808.5925 Q1156.2456,805.4675 1157.5581,803.8113 Q1158.8863,802.155 1161.3863,802.155 Q1162.0894,802.155 1162.73,802.3113 Q1163.3863,802.4675 1163.9488,802.7644 L1163.9488,805.4831 Q1163.3238,804.905 1162.73,804.6394 Q1162.1363,804.3581 1161.5113,804.3581 Q1160.1675,804.3581 1159.48,805.4363 Q1158.7925,806.4988 1158.7925,808.5925 Q1158.7925,810.6863 1159.48,811.7644 Q1160.1675,812.8269 1161.5113,812.8269 Q1162.1363,812.8269 1162.73,812.5613 Q1163.3238,812.28 1163.9488,811.7019 L1163.9488,814.4206 Z " fill="#000000"/><text fill="#000000" font-family="sans-serif" font-size="14" lengthAdjust="spacing" textLength="44.3721" x="1174.98" y="813.6267">Huella</text><line style="stroke:#181818;stroke-width:0.5;" x1="1146.98" x2="1221.3521" y1="824.78" y2="824.78"/><line style="stroke:#181818;stroke-width:0.5;" x1="1146.98" x2="1221.3521" y1="832.78" y2="832.78"/></g><!--link SistemaBiometrico to ModuloCaptura--><g id="link_SistemaBiometrico_ModuloCaptura"><path codeLine="59" d="M600.09,544.58 C538.35,568.63 476.1611,592.853 421.5611,614.113 " fill="#FFFFFF" fill-opacity="0.00000" id="SistemaBiometrico-to-ModuloCaptura" style="stroke:#181818;stroke-width:1;"/><polygon fill="#181818" points="415.97,616.29,425.808,616.7518,420.6293,614.4758,422.9053,609.297,415.97,616.29" style="stroke:#181818;stroke-width:1;"/></g><!--link SistemaBiometrico to ModuloLuz--><g id="link_SistemaBiometrico_ModuloLuz"><path codeLine="60" d="M684.35,549.87 C656.03,573.19 630.3217,594.3559 605.9617,614.4159 " fill="#FFFFFF" fill-opacity="0.00000" id="SistemaBiometrico-to-ModuloLuz" style="stroke:#181818;stroke-width:1;"/><polygon fill="#181818" points="601.33,618.23,610.8203,615.5966,605.1897,615.0516,605.7348,609.421,601.33,618.23" style="stroke:#181818;stroke-width:1;"/></g><!--link SistemaBiometrico to ProcesadorBiometrico--><g id="link_SistemaBiometrico_ProcesadorBiometrico"><path codeLine="61" d="M801.43,549.87 C809.64,570.15 816.1078,586.1287 823.5878,604.5987 " fill="#FFFFFF" fill-opacity="0.00000" id="SistemaBiometrico-to-ProcesadorBiometrico" style="stroke:#181818;stroke-width:1;"/><polygon fill="#181818" points="825.84,610.16,826.1692,600.3166,823.9632,605.5256,818.7542,603.3196,825.84,610.16" style="stroke:#181818;stroke-width:1;"/></g><!--link SistemaBiometrico to BaseDatos--><g id="link_SistemaBiometrico_BaseDatos"><path codeLine="62" d="M937.36,549.87 C983.59,570.1 1027.1832,589.1848 1069.3032,607.6148 " fill="#FFFFFF" fill-opacity="0.00000" id="SistemaBiometrico-to-BaseDatos" style="stroke:#181818;stroke-width:1;"/><polygon fill="#181818" points="1074.8,610.02,1068.1582,602.7477,1070.2193,608.0157,1064.9513,610.0768,1074.8,610.02" style="stroke:#181818;stroke-width:1;"/></g><!--link ModuloCaptura to SensorCMOS--><g id="link_ModuloCaptura_SensorCMOS"><path codeLine="64" d="M248.1,707.73 C220.11,729.65 192.0435,751.6401 165.4635,772.4601 " fill="#FFFFFF" fill-opacity="0.00000" id="ModuloCaptura-to-SensorCMOS" style="stroke:#181818;stroke-width:1;"/><polygon fill="#181818" points="160.74,776.16,170.2918,773.7592,164.6762,773.0768,165.3586,767.4612,160.74,776.16" style="stroke:#181818;stroke-width:1;"/></g><!--link ModuloCaptura to SensorToF--><g id="link_ModuloCaptura_SensorToF"><path codeLine="65" d="M321.38,707.51 C326.3,726.68 330.4699,742.918 335.3899,762.108 " fill="#FFFFFF" fill-opacity="0.00000" id="ModuloCaptura-to-SensorToF" style="stroke:#181818;stroke-width:1;"/><polygon fill="#181818" points="336.88,767.92,338.5195,758.2086,335.6382,763.0766,330.7702,760.1954,336.88,767.92" style="stroke:#181818;stroke-width:1;"/></g><!--link ModuloLuz to LED--><g id="link_ModuloLuz_LED"><path codeLine="66" d="M553.16,699.64 C553.16,729.04 553.16,762.09 553.16,786.58 " fill="#FFFFFF" fill-opacity="0.00000" id="ModuloLuz-to-LED" style="stroke:#181818;stroke-width:1;"/><polygon fill="#181818" points="553.16,792.58,557.16,783.58,553.16,787.58,549.16,783.58,553.16,792.58" style="stroke:#181818;stroke-width:1;"/></g><!--link BaseDatos to Huella--><g id="link_BaseDatos_Huella"><path codeLine="67" d="M1184.16,707.51 C1184.16,735.63 1184.16,763.98 1184.16,786.35 " fill="#FFFFFF" fill-opacity="0.00000" id="BaseDatos-to-Huella" style="stroke:#181818;stroke-width:1;"/><polygon fill="#181818" points="1184.16,792.35,1188.16,783.35,1184.16,787.35,1180.16,783.35,1184.16,792.35" style="stroke:#181818;stroke-width:1;"/></g><!--link Usuario to SistemaBiometrico--><g id="link_Usuario_SistemaBiometrico"><path codeLine="69" d="M948.76,326.95 C920.8,350.48 892.4808,374.3068 862.7008,399.3668 " fill="#FFFFFF" fill-opacity="0.00000" id="Usuario-to-SistemaBiometrico" style="stroke:#181818;stroke-width:1;"/><polygon fill="#181818" points="858.11,403.23,867.5717,400.4958,861.9357,400.0107,862.4208,394.3746,858.11,403.23" style="stroke:#181818;stroke-width:1;"/><text fill="#000000" font-family="sans-serif" font-size="13" lengthAdjust="spacing" textLength="139.6992" x="909.16" y="369.7369">Solicita autenticaci&#243;n</text></g><!--link Administrador to SistemaBiometrico--><g id="link_Administrador_SistemaBiometrico"><path codeLine="70" d="M688.17,136.94 C680.07,188.94 673.95,263.63 690.16,326.67 C696.96,353.1 706.5845,374.6641 719.8945,398.0741 " fill="#FFFFFF" fill-opacity="0.00000" id="Administrador-to-SistemaBiometrico" style="stroke:#181818;stroke-width:1;"/><polygon fill="#181818" points="722.86,403.29,721.8889,393.4891,720.3887,398.9434,714.9344,397.4432,722.86,403.29" style="stroke:#181818;stroke-width:1;"/><text fill="#000000" font-family="sans-serif" font-size="13" lengthAdjust="spacing" textLength="179.1436" x="691.16" y="274.6369">Gestiona usuarios y huellas</text></g><!--link Administrador to Usuario--><g id="link_Administrador_Usuario"><path codeLine="71" d="M803.54,136.75 C842.92,161.37 882.432,186.09 920.512,209.89 " fill="#FFFFFF" fill-opacity="0.00000" id="Administrador-to-Usuario" style="stroke:#181818;stroke-width:1;"/><polygon fill="#181818" points="925.6,213.07,920.088,204.908,921.36,210.42,915.848,211.692,925.6,213.07" style="stroke:#181818;stroke-width:1;"/><text fill="#000000" font-family="sans-serif" font-size="13" lengthAdjust="spacing" textLength="57.7129" x="877.16" y="179.5469">Gestiona</text></g><!--SRC=[ZLHjZjCm4FsVKrZzLLJr0X5QgTloiL9N8087c3X3iEHaAZjU2H2duWXSZ4binswQNVWLnpEUUU_vUQG6QqMbx80Tt2lgS31AalXP2B4NDLWymK3slKEjeHJtSMCATzGuJKUu3Cvmy37_pH8UjEjK3r9H7vFExiUKS34aqK939lKknSULNKxV2N03zeEIO3oWxIk6HAGH-Ybki6Kc9Wy_aMgANqKX9w9Vh0EZ8ZtLbABYwdqx_VRKrGQljgJ11dkfGAFD0ZjXIIkf1Z2726cab-EPUnuQPZ_1OaB_sPcfjam6J02y3Tz8QCn0hKPPNqffqGuCA-fXRmMvkhC0pc9loHmVFrICQ5vdeS_qDaPuENMIle9vwA35IGU_IfrIfT3688lel2ioubIpeFZFGjmur6bOMnZlg1GdShL6ht0lzMowUNydEcoKESKZO_qGN4Z23WtrDJPyzsS-ylhyvdJdRqSEwedP9cVVIhlcub0IT4j63HrLs7Pi7rYea6KSs5pLXUWhHwvq2aydMjshn22EO1WT6iRBhhG9p_ns0uXltXEVmfjf8BBq5JtHsjdqsXQb5uyFT0SIPxDj_IUJvNRAxFTtYwdnKiuuDDRZgmDZFJLDiEBQ-sCmS_jpmT7moI7ZFfkYIDgEEvvvKSHfCvs-GLEAJHMcI1fiKltvtM-AwvdnxFbtuNqBvpjPyJrUwrgDY2SxkVaB]--></g></svg>