<svg xmlns="http://www.w3.org/2000/svg" xmlns:xlink="http://www.w3.org/1999/xlink" contentStyleType="text/css" data-diagram-type="DESCRIPTION" height="676px" preserveAspectRatio="none" style="width:2172px;height:676px;background:#FFFFFF;" version="1.1" viewBox="0 0 2172 676" width="2172px" zoomAndPan="magnify"><defs/><g><!--cluster Sistema Biom?trico--><g id="cluster_Sistema Biom&#233;trico"><path d="M8.5,6 L163.2949,6 A3.75,3.75 0 0 1 165.7949,8.5 L172.7949,28.2969 L2162.5,28.2969 A2.5,2.5 0 0 1 2165,30.7969 L2165,666.55 A2.5,2.5 0 0 1 2162.5,669.05 L8.5,669.05 A2.5,2.5 0 0 1 6,666.55 L6,8.5 A2.5,2.5 0 0 1 8.5,6 " fill="#FFFFFF" fill-opacity="0.00000" style="stroke:#000000;stroke-width:1.5;"/><line style="stroke:#000000;stroke-width:1.5;" x1="6" x2="172.7949" y1="28.2969" y2="28.2969"/><text fill="#000000" font-family="sans-serif" font-size="14" font-weight="bold" lengthAdjust="spacing" textLength="153.7949" x="10" y="20.9951">Sistema Biom&#233;trico</text></g><!--cluster M?dulo de Autenticaci?n--><g id="cluster_M&#243;dulo de Autenticaci&#243;n"><rect fill="#FFFFFF" fill-opacity="0.00000" height="113.3" rx="2.5" ry="2.5" style="stroke:#181818;stroke-width:1;" width="212" x="923" y="158.3"/><rect fill="#FFFFFF" fill-opacity="0.00000" height="10" style="stroke:#181818;stroke-width:1;" width="15" x="1115" y="163.3"/><rect fill="#FFFFFF" fill-opacity="0.00000" height="2" style="stroke:#181818;stroke-width:1;" width="4" x="1113" y="165.3"/><rect fill="#FFFFFF" fill-opacity="0.00000" height="2" style="stroke:#181818;stroke-width:1;" width="4" x="1113" y="169.3"/><text fill="#000000" font-family="sans-serif" font-size="14" font-weight="bold" lengthAdjust="spacing" textLength="196.0957" x="930.9521" y="184.2951">M&#243;dulo de Autenticaci&#243;n</text></g><!--cluster M?dulo de Gesti?n--><g id="cluster_M&#243;dulo de Gesti&#243;n"><rect fill="#FFFFFF" fill-opacity="0.00000" height="175.15" rx="2.5" ry="2.5" style="stroke:#181818;stroke-width:1;" width="222" x="1911" y="336.6"/><rect fill="#FFFFFF" fill-opacity="0.00000" height="10" style="stroke:#181818;stroke-width:1;" width="15" x="2113" y="341.6"/><rect fill="#FFFFFF" fill-opacity="0.00000" height="2" style="stroke:#181818;stroke-width:1;" width="4" x="2111" y="343.6"/><rect fill="#FFFFFF" fill-opacity="0.00000" height="2" style="stroke:#181818;stroke-width:1;" width="4" x="2111" y="347.6"/><text fill="#000000" font-family="sans-serif" font-size="14" font-weight="bold" lengthAdjust="spacing" textLength="147.6152" x="1948.1924" y="362.5951">M&#243;dulo de Gesti&#243;n</text></g><!--cluster M?dulo de Captura--><g id="cluster_M&#243;dulo de Captura"><rect fill="#FFFFFF" fill-opacity="0.00000" height="175.15" rx="2.5" ry="2.5" style="stroke:#181818;stroke-width:1;" width="568" x="38" y="336.6"/><rect fill="#FFFFFF" fill-opacity="0.00000" height="10" style="stroke:#181818;stroke-width:1;" width="15" x="586" y="341.6"/><rect fill="#FFFFFF" fill-opacity="0.00000" height="2" style="stroke:#181818;stroke-width:1;" width="4" x="584" y="343.6"/><rect fill="#FFFFFF" fill-opacity="0.00000" height="2" style="stroke:#181818;stroke-width:1;" width="4" x="584" y="347.6"/><text fill="#000000" font-family="sans-serif" font-size="14" font-weight="bold" lengthAdjust="spacing" textLength="149.9736" x="247.0132" y="362.5951">M&#243;dulo de Captura</text></g><!--cluster Procesador Biom?trico--><g id="cluster_Procesador Biom&#233;trico"><rect fill="#FFFFFF" fill-opacity="0.00000" height="175.15" rx="2.5" ry="2.5" style="stroke:#181818;stroke-width:1;" width="796" x="646" y="336.6"/><rect fill="#FFFFFF" fill-opacity="0.00000" height="10" style="stroke:#181818;stroke-width:1;" width="15" x="1422" y="341.6"/><rect fill="#FFFFFF" fill-opacity="0.00000" height="2" style="stroke:#181818;stroke-width:1;" width="4" x="1420" y="343.6"/><rect fill="#FFFFFF" fill-opacity="0.00000" height="2" style="stroke:#181818;stroke-width:1;" width="4" x="1420" y="347.6"/><text fill="#000000" font-family="sans-serif" font-size="14" font-weight="bold" lengthAdjust="spacing" textLength="179.2588" x="954.3706" y="362.5951">Procesador Biom&#233;trico</text></g><!--cluster Base de Datos Biom?trica--><g id="cluster_Base de Datos Biom&#233;trica"><rect fill="#FFFFFF" fill-opacity="0.00000" height="199.81" rx="2.5" ry="2.5" style="stroke:#181818;stroke-width:1;" width="389" x="1482" y="437.24"/><rect fill="#FFFFFF" fill-opacity="0.00000" height="10" style="stroke:#181818;stroke-width:1;" width="15" x="1851" y="442.24"/><rect fill="#FFFFFF" fill-opacity="0.00000" height="2" style="stroke:#181818;stroke-width:1;" width="4" x="1849" y="444.24"/><rect fill="#FFFFFF" fill-opacity="0.00000" height="2" style="stroke:#181818;stroke-width:1;" width="4" x="1849" y="448.24"/><text fill="#000000" font-family="sans-serif" font-size="14" font-weight="bold" lengthAdjust="spacing" textLength="203.1094" x="1574.9453" y="463.2351">Base de Datos Biom&#233;trica</text></g><!--entity Interfaz Usuario--><g id="elem_Interfaz Usuario"><rect fill="#F1F1F1" height="46.2969" rx="2.5" ry="2.5" style="stroke:#181818;stroke-width:0.5;" width="151.3711" x="1047.31" y="41"/><rect fill="#F1F1F1" height="10" style="stroke:#181818;stroke-width:0.5;" width="15" x="1178.6811" y="46"/><rect fill="#F1F1F1" height="2" style="stroke:#181818;stroke-width:0.5;" width="4" x="1176.6811" y="48"/><rect fill="#F1F1F1" height="2" style="stroke:#181818;stroke-width:0.5;" width="4" x="1176.6811" y="52"/><text fill="#000000" font-family="sans-serif" font-size="14" lengthAdjust="spacing" textLength="111.3711" x="1062.31" y="73.9951">Interfaz Usuario</text></g><!--entity Interfaz Administrador--><g id="elem_Interfaz Administrador"><rect fill="#F1F1F1" height="46.2969" rx="2.5" ry="2.5" style="stroke:#181818;stroke-width:0.5;" width="197.2471" x="1819.38" y="201.3"/><rect fill="#F1F1F1" height="10" style="stroke:#181818;stroke-width:0.5;" width="15" x="1996.6271" y="206.3"/><rect fill="#F1F1F1" height="2" style="stroke:#181818;stroke-width:0.5;" width="4" x="1994.6271" y="208.3"/><rect fill="#F1F1F1" height="2" style="stroke:#181818;stroke-width:0.5;" width="4" x="1994.6271" y="212.3"/><text fill="#000000" font-family="sans-serif" font-size="14" lengthAdjust="spacing" textLength="157.2471" x="1834.38" y="234.2951">Interfaz Administrador</text></g><!--entity Autenticador--><g id="elem_Autenticador"><rect fill="#F1F1F1" height="46.2969" rx="2.5" ry="2.5" style="stroke:#181818;stroke-width:0.5;" width="130.2891" x="953.86" y="201.3"/><rect fill="#F1F1F1" height="10" style="stroke:#181818;stroke-width:0.5;" width="15" x="1064.1491" y="206.3"/><rect fill="#F1F1F1" height="2" style="stroke:#181818;stroke-width:0.5;" width="4" x="1062.1491" y="208.3"/><rect fill="#F1F1F1" height="2" style="stroke:#181818;stroke-width:0.5;" width="4" x="1062.1491" y="212.3"/><text fill="#000000" font-family="sans-serif" font-size="14" lengthAdjust="spacing" textLength="90.2891" x="968.86" y="234.2951">Autenticador</text></g><!--entity Gestor de Usuarios--><g id="elem_Gestor de Usuarios"><rect fill="#F1F1F1" height="46.2969" rx="2.5" ry="2.5" style="stroke:#181818;stroke-width:0.5;" width="173.4648" x="1935.27" y="441.46"/><rect fill="#F1F1F1" height="10" style="stroke:#181818;stroke-width:0.5;" width="15" x="2088.7348" y="446.46"/><rect fill="#F1F1F1" height="2" style="stroke:#181818;stroke-width:0.5;" width="4" x="2086.7348" y="448.46"/><rect fill="#F1F1F1" height="2" style="stroke:#181818;stroke-width:0.5;" width="4" x="2086.7348" y="452.46"/><text fill="#000000" font-family="sans-serif" font-size="14" lengthAdjust="spacing" textLength="133.4648" x="1950.27" y="474.4551">Gestor de Usuarios</text></g><!--entity Sensor CMOS--><g id="elem_Sensor CMOS"><rect fill="#F1F1F1" height="46.2969" rx="2.5" ry="2.5" style="stroke:#181818;stroke-width:0.5;" width="134.1992" x="61.9" y="441.46"/><rect fill="#F1F1F1" height="10" style="stroke:#181818;stroke-width:0.5;" width="15" x="176.0992" y="446.46"/><rect fill="#F1F1F1" height="2" style="stroke:#181818;stroke-width:0.5;" width="4" x="174.0992" y="448.46"/><rect fill="#F1F1F1" height="2" style="stroke:#181818;stroke-width:0.5;" width="4" x="174.0992" y="452.46"/><text fill="#000000" font-family="sans-serif" font-size="14" lengthAdjust="spacing" textLength="94.1992" x="76.9" y="474.4551">Sensor CMOS</text></g><!--entity Sensor ToF--><g id="elem_Sensor ToF"><rect fill="#F1F1F1" height="46.2969" rx="2.5" ry="2.5" style="stroke:#181818;stroke-width:0.5;" width="117.6084" x="231.2" y="441.46"/><rect fill="#F1F1F1" height="10" style="stroke:#181818;stroke-width:0.5;" width="15" x="328.8084" y="446.46"/><rect fill="#F1F1F1" height="2" style="stroke:#181818;stroke-width:0.5;" width="4" x="326.8084" y="448.46"/><rect fill="#F1F1F1" height="2" style="stroke:#181818;stroke-width:0.5;" width="4" x="326.8084" y="452.46"/><text fill="#000000" font-family="sans-serif" font-size="14" lengthAdjust="spacing" textLength="77.6084" x="246.2" y="474.4551">Sensor ToF</text></g><!--entity M?dulo de Iluminaci?n--><g id="elem_M&#243;dulo de Iluminaci&#243;n"><rect fill="#F1F1F1" height="46.2969" rx="2.5" ry="2.5" style="stroke:#181818;stroke-width:0.5;" width="198.1563" x="383.92" y="441.46"/><rect fill="#F1F1F1" height="10" style="stroke:#181818;stroke-width:0.5;" width="15" x="562.0763" y="446.46"/><rect fill="#F1F1F1" height="2" style="stroke:#181818;stroke-width:0.5;" width="4" x="560.0763" y="448.46"/><rect fill="#F1F1F1" height="2" style="stroke:#181818;stroke-width:0.5;" width="4" x="560.0763" y="452.46"/><text fill="#000000" font-family="sans-serif" font-size="14" lengthAdjust="spacing" textLength="158.1563" x="398.92" y="474.4551">M&#243;dulo de Iluminaci&#243;n</text></g><!--entity Algoritmo de Segmentaci?n--><g id="elem_Algoritmo de Segmentaci&#243;n"><rect fill="#F1F1F1" height="46.2969" rx="2.5" ry="2.5" style="stroke:#181818;stroke-width:0.5;" width="235.2617" x="670.37" y="441.46"/><rect fill="#F1F1F1" height="10" style="stroke:#181818;stroke-width:0.5;" width="15" x="885.6317" y="446.46"/><rect fill="#F1F1F1" height="2" style="stroke:#181818;stroke-width:0.5;" width="4" x="883.6317" y="448.46"/><rect fill="#F1F1F1" height="2" style="stroke:#181818;stroke-width:0.5;" width="4" x="883.6317" y="452.46"/><text fill="#000000" font-family="sans-serif" font-size="14" lengthAdjust="spacing" textLength="195.2617" x="685.37" y="474.4551">Algoritmo de Segmentaci&#243;n</text></g><!--entity Algoritmo Anti-Spoofing--><g id="elem_Algoritmo Anti-Spoofing"><rect fill="#F1F1F1" height="46.2969" rx="2.5" ry="2.5" style="stroke:#181818;stroke-width:0.5;" width="207.0703" x="940.46" y="441.46"/><rect fill="#F1F1F1" height="10" style="stroke:#181818;stroke-width:0.5;" width="15" x="1127.5303" y="446.46"/><rect fill="#F1F1F1" height="2" style="stroke:#181818;stroke-width:0.5;" width="4" x="1125.5303" y="448.46"/><rect fill="#F1F1F1" height="2" style="stroke:#181818;stroke-width:0.5;" width="4" x="1125.5303" y="452.46"/><text fill="#000000" font-family="sans-serif" font-size="14" lengthAdjust="spacing" textLength="167.0703" x="955.46" y="474.4551">Algoritmo Anti-Spoofing</text></g><!--entity Extractor de Caracter?sticas--><g id="elem_Extractor de Caracter&#237;sticas"><rect fill="#F1F1F1" height="46.2969" rx="2.5" ry="2.5" style="stroke:#181818;stroke-width:0.5;" width="235.2412" x="1182.38" y="441.46"/><rect fill="#F1F1F1" height="10" style="stroke:#181818;stroke-width:0.5;" width="15" x="1397.6212" y="446.46"/><rect fill="#F1F1F1" height="2" style="stroke:#181818;stroke-width:0.5;" width="4" x="1395.6212" y="448.46"/><rect fill="#F1F1F1" height="2" style="stroke:#181818;stroke-width:0.5;" width="4" x="1395.6212" y="452.46"/><text fill="#000000" font-family="sans-serif" font-size="14" lengthAdjust="spacing" textLength="195.2412" x="1197.38" y="474.4551">Extractor de Caracter&#237;sticas</text></g><!--entity Gestor de Huellas--><g id="elem_Gestor de Huellas"><rect fill="#F1F1F1" height="46.2969" rx="2.5" ry="2.5" style="stroke:#181818;stroke-width:0.5;" width="164.6328" x="1505.68" y="566.75"/><rect fill="#F1F1F1" height="10" style="stroke:#181818;stroke-width:0.5;" width="15" x="1650.3128" y="571.75"/><rect fill="#F1F1F1" height="2" style="stroke:#181818;stroke-width:0.5;" width="4" x="1648.3128" y="573.75"/><rect fill="#F1F1F1" height="2" style="stroke:#181818;stroke-width:0.5;" width="4" x="1648.3128" y="577.75"/><text fill="#000000" font-family="sans-serif" font-size="14" lengthAdjust="spacing" textLength="124.6328" x="1520.68" y="599.7451">Gestor de Huellas</text></g><!--entity Base de Datos--><g id="elem_Base de Datos"><rect fill="#F1F1F1" height="46.2969" rx="2.5" ry="2.5" style="stroke:#181818;stroke-width:0.5;" width="141.1992" x="1705.4" y="566.75"/><rect fill="#F1F1F1" height="10" style="stroke:#181818;stroke-width:0.5;" width="15" x="1826.5992" y="571.75"/><rect fill="#F1F1F1" height="2" style="stroke:#181818;stroke-width:0.5;" width="4" x="1824.5992" y="573.75"/><rect fill="#F1F1F1" height="2" style="stroke:#181818;stroke-width:0.5;" width="4" x="1824.5992" y="577.75"/><text fill="#000000" font-family="sans-serif" font-size="14" lengthAdjust="spacing" textLength="101.1992" x="1720.4" y="599.7451">Base de Datos</text></g><!--link Interfaz Usuario to M?dulo de Autenticaci?n--><g id="link_Interfaz Usuario_M&#243;dulo de Autenticaci&#243;n"><path d="M1114.49,87.66 C1111.49,96.73 1108.49,107.37 1107,117.3 C1105.26,128.91 1105.3456,141.2344 1106.4636,153.2183 C1106.6033,154.7163 1106.7592,156.2089 1106.9297,157.6942 C1106.951,157.8799 1106.2732,152.1063 1106.295,152.2918 " fill="#FFFFFF" fill-opacity="0.00000" id="Interfaz Usuario-to-M&#243;dulo de Autenticaci&#243;n" style="stroke:#181818;stroke-width:1;"/><polygon fill="#181818" points="1106.9943,158.2509,1109.9181,148.846,1106.4115,153.2849,1101.9726,149.7784,1106.9943,158.2509" style="stroke:#181818;stroke-width:1;"/></g><!--link Interfaz Usuario to M?dulo de Autenticaci?n--><g id="link_Interfaz Usuario_M&#243;dulo de Autenticaci&#243;n"><path d="M1123,87.5 C1123,98.2375 1123,111.9231 1123,126.4556 C1123,133.7219 1123,141.1998 1123,148.6269 C1123,150.4836 1123,152.3372 1123,154.1835 C1123,155.1066 1123,156.028 1123,156.9469 C1123,157.1767 1123,151.4063 1123,151.6357 " fill="#FFFFFF" fill-opacity="0.00000" id="Interfaz Usuario-to-M&#243;dulo de Autenticaci&#243;n-1" style="stroke:#181818;stroke-width:1;"/><polygon fill="#181818" points="1123,157.6357,1127,148.6357,1123,152.6357,1119,148.6357,1123,157.6357" style="stroke:#181818;stroke-width:1;"/><text fill="#000000" font-family="sans-serif" font-size="13" lengthAdjust="spacing" textLength="139.6992" x="1124" y="130.3669">Solicita autenticaci&#243;n</text></g><!--link Interfaz Administrador to M?dulo de Gesti?n--><g id="link_Interfaz Administrador_M&#243;dulo de Gesti&#243;n"><path d="M1961.2,247.94 C1978.82,259.58 1997.3,275.59 2007,295.6 C2012.29,306.505 2009.6469,316.1219 2002.6548,324.4242 C1999.1588,328.5754 1994.5756,332.3979 1989.3531,335.8885 C1989.0267,336.1067 1993.7269,333.0512 1993.3956,333.2667 " fill="#FFFFFF" fill-opacity="0.00000" id="Interfaz Administrador-to-M&#243;dulo de Gesti&#243;n" style="stroke:#181818;stroke-width:1;"/><polygon fill="#181818" points="1988.3666,336.5391,1998.0917,334.9832,1992.5574,333.8121,1993.7285,328.2778,1988.3666,336.5391" style="stroke:#181818;stroke-width:1;"/></g><!--link Interfaz Administrador to M?dulo de Gesti?n--><g id="link_Interfaz Administrador_M&#243;dulo de Gesti&#243;n"><path d="M1860.45,248.08 C1829.92,263.71 1801.76,286.36 1818,312.6 C1830.99,333.59 1855.66,346.1175 1877.3663,353.4275 C1888.2194,357.0825 1898.3316,359.4331 1905.8723,360.885 C1906.8149,361.0665 1907.7174,361.2339 1908.576,361.3881 C1909.0054,361.4652 1909.4238,361.539 1909.8308,361.6096 C1910.0343,361.6448 1910.2349,361.6793 1910.4327,361.713 C1910.5316,361.7299 1904.7135,360.7475 1904.8109,360.7639 " fill="#FFFFFF" fill-opacity="0.00000" id="Interfaz Administrador-to-M&#243;dulo de Gesti&#243;n-1" style="stroke:#181818;stroke-width:1;"/><polygon fill="#181818" points="1910.7271,361.763,1902.5188,356.3202,1905.7969,360.9304,1901.1867,364.2085,1910.7271,361.763" style="stroke:#181818;stroke-width:1;"/><text fill="#000000" font-family="sans-serif" font-size="13" lengthAdjust="spacing" textLength="179.1436" x="1819" y="308.6669">Gestiona usuarios y huellas</text></g><!--link M?dulo de Captura to Sensor CMOS--><g id="link_M&#243;dulo de Captura_Sensor CMOS"><path d="M385.72,364.53 C379.93,366.09 286.11,391.55 214,421.24 C199.82,427.08 190.0902,431.574 176.6102,438.354 " fill="#FFFFFF" fill-opacity="0.00000" id="M&#243;dulo de Captura-to-Sensor CMOS" style="stroke:#181818;stroke-width:1;"/><polygon fill="#181818" points="171.25,441.05,181.0876,440.5795,175.7168,438.8033,177.4929,433.4325,171.25,441.05" style="stroke:#181818;stroke-width:1;"/></g><!--link M?dulo de Captura to Sensor ToF--><g id="link_M&#243;dulo de Captura_Sensor ToF"><path d="M385.72,364.74 C381.88,368.72 342.7341,409.15 315.7041,437.06 " fill="#FFFFFF" fill-opacity="0.00000" id="M&#243;dulo de Captura-to-Sensor ToF" style="stroke:#181818;stroke-width:1;"/><polygon fill="#181818" points="311.53,441.37,320.6646,437.6877,315.0085,437.7783,314.9179,432.1222,311.53,441.37" style="stroke:#181818;stroke-width:1;"/></g><!--link M?dulo de Captura to M?dulo de Iluminaci?n--><g id="link_M&#243;dulo de Captura_M&#243;dulo de Iluminaci&#243;n"><path d="M386.28,364.74 C390.17,368.72 429.7437,409.1715 457.0537,437.0815 " fill="#FFFFFF" fill-opacity="0.00000" id="M&#243;dulo de Captura-to-M&#243;dulo de Iluminaci&#243;n" style="stroke:#181818;stroke-width:1;"/><polygon fill="#181818" points="461.25,441.37,457.8145,432.1397,457.7531,437.7963,452.0966,437.7348,461.25,441.37" style="stroke:#181818;stroke-width:1;"/></g><!--link Procesador Biom?trico to Algoritmo de Segmentaci?n--><g id="link_Procesador Biom&#233;trico_Algoritmo de Segmentaci&#243;n"><path d="M1122.68,364.54 C1116.06,366.35 1008.77,395.62 923,421.24 C902.05,427.5 885.0744,432.7325 864.3744,439.2325 " fill="#FFFFFF" fill-opacity="0.00000" id="Procesador Biom&#233;trico-to-Algoritmo de Segmentaci&#243;n" style="stroke:#181818;stroke-width:1;"/><polygon fill="#181818" points="858.65,441.03,868.435,442.15,863.4203,439.5321,866.0383,434.5174,858.65,441.03" style="stroke:#181818;stroke-width:1;"/></g><!--link Procesador Biom?trico to Algoritmo Anti-Spoofing--><g id="link_Procesador Biom&#233;trico_Algoritmo Anti-Spoofing"><path d="M1122.77,364.74 C1119.61,368.72 1087.6991,408.7676 1065.4591,436.6776 " fill="#FFFFFF" fill-opacity="0.00000" id="Procesador Biom&#233;trico-to-Algoritmo Anti-Spoofing" style="stroke:#181818;stroke-width:1;"/><polygon fill="#181818" points="1061.72,441.37,1070.457,436.8241,1064.836,437.4596,1064.2004,431.8386,1061.72,441.37" style="stroke:#181818;stroke-width:1;"/></g><!--link Procesador Biom?trico to Extractor de Caracter?sticas--><g id="link_Procesador Biom&#233;trico_Extractor de Caracter&#237;sticas"><path d="M1123.13,364.53 C1126.8,366.59 1203.3252,409.4579 1254.3852,438.0579 " fill="#FFFFFF" fill-opacity="0.00000" id="Procesador Biom&#233;trico-to-Extractor de Caracter&#237;sticas" style="stroke:#181818;stroke-width:1;"/><polygon fill="#181818" points="1259.62,440.99,1253.7226,433.102,1255.2577,438.5466,1249.8131,440.0817,1259.62,440.99" style="stroke:#181818;stroke-width:1;"/></g><!--link Base de Datos Biom?trica to Gestor de Huellas--><g id="link_Base de Datos Biom&#233;trica_Gestor de Huellas"><path d="M1490.07,465.69 C1492.22,468.39 1538.6663,526.8332 1566.3463,561.6532 " fill="#FFFFFF" fill-opacity="0.00000" id="Base de Datos Biom&#233;trica-to-Gestor de Huellas" style="stroke:#181818;stroke-width:1;"/><polygon fill="#181818" points="1570.08,566.35,1567.6107,556.8157,1566.9686,562.436,1561.3483,561.794,1570.08,566.35" style="stroke:#181818;stroke-width:1;"/></g><!--link M?dulo de Autenticaci?n to Procesador Biom?trico--><g id="link_M&#243;dulo de Autenticaci&#243;n_Procesador Biom&#233;trico"><path d="M1118.7493,271.613 C1118.7732,271.714 1118.7973,271.8148 1118.8219,271.9156 C1118.8709,272.1171 1118.9212,272.3181 1118.973,272.5186 C1119.1799,273.3208 1119.4086,274.1151 1119.6606,274.8998 C1120.1645,276.4692 1120.7613,278.0002 1121.462,279.4783 C1122.8633,282.4347 1124.68,285.18 1127,287.6 C1138.6,299.69 1190.79,283.13 1202,295.6 C1209.5925,304.0425 1208.6638,312.4087 1202.948,320.225 C1200.0901,324.1331 1196.0354,327.9037 1191.2508,331.4777 C1190.0546,332.3711 1188.8129,333.2523 1187.5328,334.1203 C1186.8927,334.5543 1186.2431,334.9849 1185.5847,335.4122 C1185.2556,335.6258 1184.9243,335.8386 1184.5909,336.0505 C1184.4242,336.1564 1189.3354,333.0669 1189.1677,333.1724 " fill="#FFFFFF" fill-opacity="0.00000" id="M&#243;dulo de Autenticaci&#243;n-to-Procesador Biom&#233;trico" style="stroke:#181818;stroke-width:1;"/><polygon fill="#181818" points="1184.0893,336.3677,1193.8371,334.9604,1188.3213,333.705,1189.5768,328.1892,1184.0893,336.3677" style="stroke:#181818;stroke-width:1;"/></g><!--link M?dulo de Autenticaci?n to Procesador Biom?trico--><g id="link_M&#243;dulo de Autenticaci&#243;n_Procesador Biom&#233;trico"><path d="M1112.593,271.7294 C1112.5414,271.8292 1112.4895,271.9289 1112.4374,272.0284 C1112.2288,272.4266 1112.0162,272.8225 1111.7993,273.2159 C1111.3656,274.0027 1110.9151,274.7795 1110.4471,275.5442 C1109.5112,277.0738 1108.5055,278.5555 1107.4249,279.9738 C1105.2636,282.8105 1102.8025,285.3937 1100,287.6 C1088.04,297.01 1042.11,284.23 1032,295.6 C1023.77,304.8525 1025.1019,313.63 1031.7878,321.6059 C1035.1308,325.5939 1039.8123,329.3815 1045.3063,332.9279 C1046.6798,333.8144 1048.1041,334.686 1049.5709,335.5418 C1049.9377,335.7557 1050.307,335.9687 1050.6789,336.1807 C1050.8649,336.2866 1045.8243,333.4468 1046.0115,333.5523 " fill="#FFFFFF" fill-opacity="0.00000" id="M&#243;dulo de Autenticaci&#243;n-to-Procesador Biom&#233;trico-1" style="stroke:#181818;stroke-width:1;"/><polygon fill="#181818" points="1051.2387,336.4979,1045.3616,328.5947,1046.8827,334.0432,1041.4342,335.5643,1051.2387,336.4979" style="stroke:#181818;stroke-width:1;"/><text fill="#000000" font-family="sans-serif" font-size="13" lengthAdjust="spacing" textLength="160.3735" x="1033" y="308.6669">Env&#237;a imagen procesada</text></g><!--link M?dulo de Autenticaci?n to Base de Datos Biom?trica--><g id="link_M&#243;dulo de Autenticaci&#243;n_Base de Datos Biom&#233;trica"><path d="M1118.6949,271.6675 C1118.7189,271.7683 1118.7432,271.869 1118.7678,271.9696 C1118.8171,272.1709 1118.8677,272.3716 1118.9198,272.5718 C1119.1279,273.3728 1119.358,274.1658 1119.6115,274.949 C1120.1184,276.5153 1120.719,278.0425 1121.4242,279.5161 C1122.8347,282.4633 1124.6638,285.1962 1127,287.6 C1133.69,294.48 1203.45,294.65 1213,295.6 C1265.7,300.83 1409.55,286.42 1450,320.6 C1474.81,341.565 1484.8875,376.535 1488.725,406.645 C1489.6844,414.1725 1490.2537,421.3963 1490.5658,428.0215 C1490.6438,429.6778 1490.7058,431.2967 1490.7537,432.8736 C1490.7777,433.662 1490.7981,434.44 1490.8153,435.2068 C1490.824,435.5903 1490.8318,435.9709 1490.8388,436.3487 C1490.8423,436.5377 1490.7456,430.7267 1490.7487,430.9142 " fill="#FFFFFF" fill-opacity="0.00000" id="M&#243;dulo de Autenticaci&#243;n-to-Base de Datos Biom&#233;trica" style="stroke:#181818;stroke-width:1;"/><polygon fill="#181818" points="1490.8487,436.9133,1494.6982,427.8479,1490.7654,431.914,1486.6993,427.9812,1490.8487,436.9133" style="stroke:#181818;stroke-width:1;"/></g><!--link M?dulo de Gesti?n to Gestor de Usuarios--><g id="link_M&#243;dulo de Gesti&#243;n_Gestor de Usuarios"><path d="M1919.3,364.74 C1923.43,368.72 1965.5769,409.2994 1994.5769,437.2094 " fill="#FFFFFF" fill-opacity="0.00000" id="M&#243;dulo de Gesti&#243;n-to-Gestor de Usuarios" style="stroke:#181818;stroke-width:1;"/><polygon fill="#181818" points="1998.9,441.37,1995.1891,432.247,1995.2974,437.9028,1989.6416,438.0111,1998.9,441.37" style="stroke:#181818;stroke-width:1;"/></g><!--link M?dulo de Gesti?n to Base de Datos Biom?trica--><g id="link_M&#243;dulo de Gesti&#243;n_Base de Datos Biom&#233;trica"><path d="M1910.3691,366.4532 C1909.8637,366.57 1909.3376,366.6916 1908.791,366.818 C1907.698,367.0706 1906.5234,367.3421 1905.2703,367.6317 C1902.7642,368.2109 1899.9441,368.8627 1896.8344,369.5814 C1884.3957,372.4562 1867.3239,376.4017 1847.1803,381.0572 C1806.8931,390.3681 1754.3188,402.5187 1701.9475,414.6225 C1675.7619,420.6744 1649.627,426.7145 1625.1043,432.3821 C1618.9736,433.7991 1612.9436,435.1927 1607.0388,436.5574 C1606.3007,436.728 1611.4105,435.547 1610.6764,435.7167 " fill="#FFFFFF" fill-opacity="0.00000" id="M&#243;dulo de Gesti&#243;n-to-Base de Datos Biom&#233;trica" style="stroke:#181818;stroke-width:1;"/><polygon fill="#181818" points="1604.8305,437.0678,1614.5,438.9384,1609.702,435.9419,1612.6986,431.1439,1604.8305,437.0678" style="stroke:#181818;stroke-width:1;"/></g><!--link M?dulo de Autenticaci?n to M?dulo de Captura--><g id="link_M&#243;dulo de Autenticaci&#243;n_M&#243;dulo de Captura"><path d="M1113.0612,271.8465 C1112.9577,272.045 1112.8531,272.2428 1112.7474,272.44 C1112.5361,272.8344 1112.3204,273.2263 1112.1002,273.6153 C1111.6599,274.3933 1111.2018,275.16 1110.7253,275.9134 C1109.7723,277.4201 1108.7454,278.8736 1107.639,280.2577 C1105.4261,283.0258 1102.895,285.5163 1100,287.6 C1088.36,295.97 856.3,294.5 842,295.6 C750.92,302.57 728.4,307.47 638,320.6 C610.34,324.6175 581.0325,329.2231 552.5634,333.8841 C549.0048,334.4667 545.4593,335.0502 541.9317,335.6335 C540.1679,335.9251 544.3275,335.2334 542.5733,335.5248 " fill="#FFFFFF" fill-opacity="0.00000" id="M&#243;dulo de Autenticaci&#243;n-to-M&#243;dulo de Captura" style="stroke:#181818;stroke-width:1;"/><polygon fill="#181818" points="536.6544,336.5082,546.1883,338.9791,541.5868,335.6887,544.8772,331.0872,536.6544,336.5082" style="stroke:#181818;stroke-width:1;"/><text fill="#000000" font-family="sans-serif" font-size="13" lengthAdjust="spacing" textLength="174.6431" x="843" y="308.6669">Solicita captura de imagen</text></g><!--link Procesador Biom?trico to Base de Datos Biom?trica--><g id="link_Procesador Biom&#233;trico_Base de Datos Biom&#233;trica"><path d="M1442.2028,424.8684 C1442.3107,424.9229 1442.4186,424.9776 1442.5264,425.0325 C1442.7421,425.1424 1442.9575,425.2531 1443.1725,425.3647 C1443.6027,425.5879 1444.0317,425.8145 1444.4595,426.0443 C1447.8818,427.8828 1451.2255,429.9277 1454.4473,432.0873 C1460.8909,436.4066 1466.8469,441.1844 1471.9688,445.6863 C1474.5297,447.9372 1476.8821,450.1191 1478.9827,452.1403 C1480.033,453.1509 1476.7771,449.8793 1477.6961,450.798 " fill="#FFFFFF" fill-opacity="0.00000" id="Procesador Biom&#233;trico-to-Base de Datos Biom&#233;trica" style="stroke:#181818;stroke-width:1;"/><polygon fill="#181818" points="1481.9393,455.0399,1478.4024,445.8481,1478.4033,451.505,1472.7464,451.5058,1481.9393,455.0399" style="stroke:#181818;stroke-width:1;"/><text fill="#000000" font-family="sans-serif" font-size="13" lengthAdjust="spacing" textLength="170.3394" x="1302" y="407.5269">Consulta/actualiza huellas</text></g><!--SRC=[bLN9JiCm4Btp5QFUA-uSa4hPUa0W1KweXv5ZYaNYYRomgX_4WHEVa1_3JbnmsZWDEINsp9itsqk5x0bN72QPq8QN22U2olhJAC5e0Xy7u9xxXJHSFU0xt6cBIj0IfZczoEant5_Ltxaj278ECskuD88X4_MtN6wvpl9II1T3OKwg7-22QzEwDhwCoegaWuH9P3J7obY56svDa8nBJGhcLzVPSkVqbiwZmmXfKLX7AMQxRH5YERQUQN-KVUR9y5thGLxhdOBSA69S-rBsDQm9DIjMf8Gf6yoChqhdk9Fidz7CjMwQLKGFGguYYxDNrp9cNA26it_dglxIlj4wikjd5B8RnMKaGeheeFk8B7QBV8AQU_jJDAGZqExm-QbjSIyjBufEKJe8gVCOET1DOAw75gExVjrHs5pvrUiTngtTRLaaAZeU89tc_dGsOf2eTL0YtS_cLqcso_aljt7q-zHnM1dXoCaj5O89Wu3TjkrHpPHYUiZcWoI23Kd26posunDWz_MhJvrYhgmzzFUYT7yDEH8tjPeE-qm-rryOuA0AXXY01tTwO8aSy9oajeN1GxVg5WlnZd_5MFy0]--></g></svg>