<svg xmlns="http://www.w3.org/2000/svg" xmlns:xlink="http://www.w3.org/1999/xlink" contentStyleType="text/css" data-diagram-type="DESCRIPTION" height="337px" preserveAspectRatio="none" style="width:1949px;height:337px;background:#FFFFFF;" version="1.1" viewBox="0 0 1949 337" width="1949px" zoomAndPan="magnify"><defs/><g><!--cluster Cerradura Electr?nica--><g id="cluster_Cerradura Electr&#243;nica"><path d="M1079.5,127.3 L1252.6221,127.3 A3.75,3.75 0 0 1 1255.1221,129.8 L1262.1221,149.5969 L1547.5,149.5969 A2.5,2.5 0 0 1 1550,152.0969 L1550,328.39 A2.5,2.5 0 0 1 1547.5,330.89 L1079.5,330.89 A2.5,2.5 0 0 1 1077,328.39 L1077,129.8 A2.5,2.5 0 0 1 1079.5,127.3 " fill="#FFFFFF" fill-opacity="0.00000" style="stroke:#000000;stroke-width:1.5;"/><line style="stroke:#000000;stroke-width:1.5;" x1="1077" x2="1262.1221" y1="149.5969" y2="149.5969"/><text fill="#000000" font-family="sans-serif" font-size="14" font-weight="bold" lengthAdjust="spacing" textLength="172.1221" x="1081" y="142.2951">Cerradura Electr&#243;nica</text></g><!--cluster M?dulo Mec?nico--><g id="cluster_M&#243;dulo Mec&#225;nico"><path d="M1051.5,6 L1189.1846,6 A3.75,3.75 0 0 1 1191.6846,8.5 L1198.6846,28.2969 L1617.5,28.2969 A2.5,2.5 0 0 1 1620,30.7969 L1620,100.8 A2.5,2.5 0 0 1 1617.5,103.3 L1051.5,103.3 A2.5,2.5 0 0 1 1049,100.8 L1049,8.5 A2.5,2.5 0 0 1 1051.5,6 " fill="#FFFFFF" fill-opacity="0.00000" style="stroke:#000000;stroke-width:1.5;"/><line style="stroke:#000000;stroke-width:1.5;" x1="1049" x2="1198.6846" y1="28.2969" y2="28.2969"/><text fill="#000000" font-family="sans-serif" font-size="14" font-weight="bold" lengthAdjust="spacing" textLength="136.6846" x="1053" y="20.9951">M&#243;dulo Mec&#225;nico</text></g><!--cluster M?dulo Electr?nico--><g id="cluster_M&#243;dulo Electr&#243;nico"><path d="M8.5,127.3 L160.3828,127.3 A3.75,3.75 0 0 1 162.8828,129.8 L169.8828,149.5969 L1050.5,149.5969 A2.5,2.5 0 0 1 1053,152.0969 L1053,222.09 A2.5,2.5 0 0 1 1050.5,224.59 L8.5,224.59 A2.5,2.5 0 0 1 6,222.09 L6,129.8 A2.5,2.5 0 0 1 8.5,127.3 " fill="#FFFFFF" fill-opacity="0.00000" style="stroke:#000000;stroke-width:1.5;"/><line style="stroke:#000000;stroke-width:1.5;" x1="6" x2="169.8828" y1="149.5969" y2="149.5969"/><text fill="#000000" font-family="sans-serif" font-size="14" font-weight="bold" lengthAdjust="spacing" textLength="150.8828" x="10" y="142.2951">M&#243;dulo Electr&#243;nico</text></g><!--cluster M?dulo de Comunicaciones--><g id="cluster_M&#243;dulo de Comunicaciones"><path d="M1576.5,127.3 L1792.1895,127.3 A3.75,3.75 0 0 1 1794.6895,129.8 L1801.6895,149.5969 L1939.5,149.5969 A2.5,2.5 0 0 1 1942,152.0969 L1942,222.09 A2.5,2.5 0 0 1 1939.5,224.59 L1576.5,224.59 A2.5,2.5 0 0 1 1574,222.09 L1574,129.8 A2.5,2.5 0 0 1 1576.5,127.3 " fill="#FFFFFF" fill-opacity="0.00000" style="stroke:#000000;stroke-width:1.5;"/><line style="stroke:#000000;stroke-width:1.5;" x1="1574" x2="1801.6895" y1="149.5969" y2="149.5969"/><text fill="#000000" font-family="sans-serif" font-size="14" font-weight="bold" lengthAdjust="spacing" textLength="214.6895" x="1578" y="142.2951">M&#243;dulo de Comunicaciones</text></g><!--entity mecanico--><g id="elem_mecanico"><rect fill="#F1F1F1" height="46.2969" rx="2.5" ry="2.5" style="stroke:#181818;stroke-width:0.5;" width="161.3037" x="1218.35" y="162.3"/><rect fill="#F1F1F1" height="10" style="stroke:#181818;stroke-width:0.5;" width="15" x="1359.6537" y="167.3"/><rect fill="#F1F1F1" height="2" style="stroke:#181818;stroke-width:0.5;" width="4" x="1357.6537" y="169.3"/><rect fill="#F1F1F1" height="2" style="stroke:#181818;stroke-width:0.5;" width="4" x="1357.6537" y="173.3"/><text fill="#000000" font-family="sans-serif" font-size="14" lengthAdjust="spacing" textLength="121.3037" x="1233.35" y="195.2951">M&#243;dulo Mec&#225;nico</text></g><!--entity electronico--><g id="elem_electronico"><rect fill="#F1F1F1" height="46.2969" rx="2.5" ry="2.5" style="stroke:#181818;stroke-width:0.5;" width="173.1914" x="1093.4" y="268.59"/><rect fill="#F1F1F1" height="10" style="stroke:#181818;stroke-width:0.5;" width="15" x="1246.5914" y="273.59"/><rect fill="#F1F1F1" height="2" style="stroke:#181818;stroke-width:0.5;" width="4" x="1244.5914" y="275.59"/><rect fill="#F1F1F1" height="2" style="stroke:#181818;stroke-width:0.5;" width="4" x="1244.5914" y="279.59"/><text fill="#000000" font-family="sans-serif" font-size="14" lengthAdjust="spacing" textLength="133.1914" x="1108.4" y="301.5851">M&#243;dulo Electr&#243;nico</text></g><!--entity comunicaciones--><g id="elem_comunicaciones"><rect fill="#F1F1F1" height="46.2969" rx="2.5" ry="2.5" style="stroke:#181818;stroke-width:0.5;" width="232.083" x="1301.96" y="268.59"/><rect fill="#F1F1F1" height="10" style="stroke:#181818;stroke-width:0.5;" width="15" x="1514.043" y="273.59"/><rect fill="#F1F1F1" height="2" style="stroke:#181818;stroke-width:0.5;" width="4" x="1512.043" y="275.59"/><rect fill="#F1F1F1" height="2" style="stroke:#181818;stroke-width:0.5;" width="4" x="1512.043" y="279.59"/><text fill="#000000" font-family="sans-serif" font-size="14" lengthAdjust="spacing" textLength="192.083" x="1316.96" y="301.5851">M&#243;dulo de Comunicaciones</text></g><!--entity sistemabloqueo--><g id="elem_sistemabloqueo"><rect fill="#F1F1F1" height="46.2969" rx="2.5" ry="2.5" style="stroke:#181818;stroke-width:0.5;" width="179.7881" x="1065.11" y="41"/><rect fill="#F1F1F1" height="10" style="stroke:#181818;stroke-width:0.5;" width="15" x="1224.8981" y="46"/><rect fill="#F1F1F1" height="2" style="stroke:#181818;stroke-width:0.5;" width="4" x="1222.8981" y="48"/><rect fill="#F1F1F1" height="2" style="stroke:#181818;stroke-width:0.5;" width="4" x="1222.8981" y="52"/><text fill="#000000" font-family="sans-serif" font-size="14" lengthAdjust="spacing" textLength="139.7881" x="1080.11" y="73.9951">Sistema de Bloqueo</text></g><!--entity carcasa--><g id="elem_carcasa"><rect fill="#F1F1F1" height="46.2969" rx="2.5" ry="2.5" style="stroke:#181818;stroke-width:0.5;" width="324.5732" x="1279.71" y="41"/><rect fill="#F1F1F1" height="10" style="stroke:#181818;stroke-width:0.5;" width="15" x="1584.2832" y="46"/><rect fill="#F1F1F1" height="2" style="stroke:#181818;stroke-width:0.5;" width="4" x="1582.2832" y="48"/><rect fill="#F1F1F1" height="2" style="stroke:#181818;stroke-width:0.5;" width="4" x="1582.2832" y="52"/><text fill="#000000" font-family="sans-serif" font-size="14" lengthAdjust="spacing" textLength="284.5732" x="1294.71" y="73.9951">Carcasa y Materiales de Alta Resistencia</text></g><!--entity Motor de Precisi?n--><g id="elem_Motor de Precisi&#243;n"><rect fill="#F1F1F1" height="46.2969" rx="2.5" ry="2.5" style="stroke:#181818;stroke-width:0.5;" width="169.876" x="22.06" y="162.3"/><rect fill="#F1F1F1" height="10" style="stroke:#181818;stroke-width:0.5;" width="15" x="171.936" y="167.3"/><rect fill="#F1F1F1" height="2" style="stroke:#181818;stroke-width:0.5;" width="4" x="169.936" y="169.3"/><rect fill="#F1F1F1" height="2" style="stroke:#181818;stroke-width:0.5;" width="4" x="169.936" y="173.3"/><text fill="#000000" font-family="sans-serif" font-size="14" lengthAdjust="spacing" textLength="129.876" x="37.06" y="195.2951">Motor de Precisi&#243;n</text></g><!--entity sensores--><g id="elem_sensores"><rect fill="#F1F1F1" height="46.2969" rx="2.5" ry="2.5" style="stroke:#181818;stroke-width:0.5;" width="187.5127" x="227.24" y="162.3"/><rect fill="#F1F1F1" height="10" style="stroke:#181818;stroke-width:0.5;" width="15" x="394.7527" y="167.3"/><rect fill="#F1F1F1" height="2" style="stroke:#181818;stroke-width:0.5;" width="4" x="392.7527" y="169.3"/><rect fill="#F1F1F1" height="2" style="stroke:#181818;stroke-width:0.5;" width="4" x="392.7527" y="173.3"/><text fill="#000000" font-family="sans-serif" font-size="14" lengthAdjust="spacing" textLength="147.5127" x="242.24" y="195.2951">Sensores de Posici&#243;n</text></g><!--entity credenciales--><g id="elem_credenciales"><rect fill="#F1F1F1" height="46.2969" rx="2.5" ry="2.5" style="stroke:#181818;stroke-width:0.5;" width="294.6797" x="449.66" y="162.3"/><rect fill="#F1F1F1" height="10" style="stroke:#181818;stroke-width:0.5;" width="15" x="724.3397" y="167.3"/><rect fill="#F1F1F1" height="2" style="stroke:#181818;stroke-width:0.5;" width="4" x="722.3397" y="169.3"/><rect fill="#F1F1F1" height="2" style="stroke:#181818;stroke-width:0.5;" width="4" x="722.3397" y="173.3"/><text fill="#000000" font-family="sans-serif" font-size="14" lengthAdjust="spacing" textLength="254.6797" x="464.66" y="195.2951">Lectura RFID y Credenciales M&#243;viles</text></g><!--entity bluetooth--><g id="elem_bluetooth"><rect fill="#F1F1F1" height="46.2969" rx="2.5" ry="2.5" style="stroke:#181818;stroke-width:0.5;" width="257.5195" x="779.24" y="162.3"/><rect fill="#F1F1F1" height="10" style="stroke:#181818;stroke-width:0.5;" width="15" x="1016.7595" y="167.3"/><rect fill="#F1F1F1" height="2" style="stroke:#181818;stroke-width:0.5;" width="4" x="1014.7595" y="169.3"/><rect fill="#F1F1F1" height="2" style="stroke:#181818;stroke-width:0.5;" width="4" x="1014.7595" y="173.3"/><text fill="#000000" font-family="sans-serif" font-size="14" lengthAdjust="spacing" textLength="217.5195" x="794.24" y="195.2951">Bluetooth para Actualizaciones</text></g><!--entity rs--><g id="elem_rs"><rect fill="#F1F1F1" height="46.2969" rx="2.5" ry="2.5" style="stroke:#181818;stroke-width:0.5;" width="90.3877" x="1589.81" y="162.3"/><rect fill="#F1F1F1" height="10" style="stroke:#181818;stroke-width:0.5;" width="15" x="1660.1977" y="167.3"/><rect fill="#F1F1F1" height="2" style="stroke:#181818;stroke-width:0.5;" width="4" x="1658.1977" y="169.3"/><rect fill="#F1F1F1" height="2" style="stroke:#181818;stroke-width:0.5;" width="4" x="1658.1977" y="173.3"/><text fill="#000000" font-family="sans-serif" font-size="14" lengthAdjust="spacing" textLength="50.3877" x="1604.81" y="195.2951">RS-485</text></g><!--entity NFC--><g id="elem_NFC"><rect fill="#F1F1F1" height="46.2969" rx="2.5" ry="2.5" style="stroke:#181818;stroke-width:0.5;" width="68.3008" x="1714.85" y="162.3"/><rect fill="#F1F1F1" height="10" style="stroke:#181818;stroke-width:0.5;" width="15" x="1763.1508" y="167.3"/><rect fill="#F1F1F1" height="2" style="stroke:#181818;stroke-width:0.5;" width="4" x="1761.1508" y="169.3"/><rect fill="#F1F1F1" height="2" style="stroke:#181818;stroke-width:0.5;" width="4" x="1761.1508" y="173.3"/><text fill="#000000" font-family="sans-serif" font-size="14" lengthAdjust="spacing" textLength="28.3008" x="1729.85" y="195.2951">NFC</text></g><!--entity Bluetooth--><g id="elem_Bluetooth"><rect fill="#F1F1F1" height="46.2969" rx="2.5" ry="2.5" style="stroke:#181818;stroke-width:0.5;" width="107.9629" x="1818.02" y="162.3"/><rect fill="#F1F1F1" height="10" style="stroke:#181818;stroke-width:0.5;" width="15" x="1905.9829" y="167.3"/><rect fill="#F1F1F1" height="2" style="stroke:#181818;stroke-width:0.5;" width="4" x="1903.9829" y="169.3"/><rect fill="#F1F1F1" height="2" style="stroke:#181818;stroke-width:0.5;" width="4" x="1903.9829" y="173.3"/><text fill="#000000" font-family="sans-serif" font-size="14" lengthAdjust="spacing" textLength="67.9629" x="1833.02" y="195.2951">Bluetooth</text></g><!--link mecanico to electronico--><!--link mecanico to comunicaciones--><!--link sistemabloqueo to mecanico--><g id="link_sistemabloqueo_mecanico"><path d="M1182.09,87.59 C1207.83,108.92 1241.7096,136.9822 1267.4196,158.2822 " fill="#FFFFFF" fill-opacity="0.00000" id="sistemabloqueo-to-mecanico" style="stroke:#181818;stroke-width:1;"/><polygon fill="#181818" points="1272.04,162.11,1267.6614,153.288,1268.1897,158.9201,1262.5576,159.4485,1272.04,162.11" style="stroke:#181818;stroke-width:1;"/></g><!--link carcasa to mecanico--><g id="link_carcasa_mecanico"><path d="M1415.1,87.59 C1389.54,108.92 1355.9064,136.9653 1330.3864,158.2653 " fill="#FFFFFF" fill-opacity="0.00000" id="carcasa-to-mecanico" style="stroke:#181818;stroke-width:1;"/><polygon fill="#181818" points="1325.78,162.11,1335.2527,159.4139,1329.6186,158.9061,1330.1264,153.2721,1325.78,162.11" style="stroke:#181818;stroke-width:1;"/></g><!--link sensores to electronico--><g id="link_sensores_electronico"><path d="M366.08,209 C385.83,217.87 409.58,227.21 432,232.59 C555.32,262.22 917.9052,280.1714 1087.2152,287.1914 " fill="#FFFFFF" fill-opacity="0.00000" id="sensores-to-electronico" style="stroke:#181818;stroke-width:1;"/><polygon fill="#181818" points="1093.21,287.44,1084.3834,283.0706,1088.2143,287.2329,1084.052,291.0637,1093.21,287.44" style="stroke:#181818;stroke-width:1;"/></g><!--link credenciales to electronico--><g id="link_credenciales_electronico"><path d="M669.58,209.02 C698.17,217.31 731.42,226.22 762,232.59 C875.33,256.21 1002.0253,272.1799 1086.9853,281.4399 " fill="#FFFFFF" fill-opacity="0.00000" id="credenciales-to-electronico" style="stroke:#181818;stroke-width:1;"/><polygon fill="#181818" points="1092.95,282.09,1084.4364,277.1384,1087.9794,281.5482,1083.5696,285.0913,1092.95,282.09" style="stroke:#181818;stroke-width:1;"/></g><!--link bluetooth to electronico--><g id="link_bluetooth_electronico"><path d="M967.02,209.08 C1012.64,226.57 1069.8975,248.5224 1115.4975,266.0024 " fill="#FFFFFF" fill-opacity="0.00000" id="bluetooth-to-electronico" style="stroke:#181818;stroke-width:1;"/><polygon fill="#181818" points="1121.1,268.15,1114.128,261.1936,1116.4313,266.3603,1111.2645,268.6636,1121.1,268.15" style="stroke:#181818;stroke-width:1;"/></g><!--link rs to comunicaciones--><g id="link_rs_comunicaciones"><path d="M1595.14,208.96 C1581.02,216.71 1564.92,225.27 1550,232.59 C1524.71,245 1501.66,255.3652 1477.6,265.7352 " fill="#FFFFFF" fill-opacity="0.00000" id="rs-to-comunicaciones" style="stroke:#181818;stroke-width:1;"/><polygon fill="#181818" points="1472.09,268.11,1481.9382,268.2211,1476.6817,266.131,1478.7718,260.8744,1472.09,268.11" style="stroke:#181818;stroke-width:1;"/></g><!--link NFC to comunicaciones--><g id="link_NFC_comunicaciones"><path d="M1729.1,209.03 C1720.37,217.62 1709.5,226.75 1698,232.59 C1647.54,258.23 1592.4306,271.66 1540.2306,279.67 " fill="#FFFFFF" fill-opacity="0.00000" id="NFC-to-comunicaciones" style="stroke:#181818;stroke-width:1;"/><polygon fill="#181818" points="1534.3,280.58,1543.8026,283.1687,1539.2422,279.8216,1542.5892,275.2612,1534.3,280.58" style="stroke:#181818;stroke-width:1;"/></g><!--link Bluetooth to comunicaciones--><g id="link_Bluetooth_comunicaciones"><path d="M1843.47,208.98 C1831.07,217.68 1815.98,226.9 1801,232.59 C1715.2,265.23 1617.9803,279.1147 1540.3403,285.4147 " fill="#FFFFFF" fill-opacity="0.00000" id="Bluetooth-to-comunicaciones" style="stroke:#181818;stroke-width:1;"/><polygon fill="#181818" points="1534.36,285.9,1543.654,289.159,1539.3436,285.4956,1543.007,281.1852,1534.36,285.9" style="stroke:#181818;stroke-width:1;"/></g><!--SRC=[RL9BJiCm5Dpx54_TPmSIAwGcK854KTKkgonUdIUmSEDWEqY0E0ndw15wCVn9GjmakxmPpypxDCZVy8LWKP3MMBKQuLuIj_fygWN71NmpSDz-VJvLhLIm9dx-TOWg0GqSYQF_IJaZWKYZK51JPaLGg6FhdRXGDPb0vqc9_J3Mz2adCOQ0Es4i7T5BvbAzjnIjJImVOYbI2zGS3S8dhD6I5YZ9-7TBQH6s59xKN60C4ycpASQD_azAMQMzt4OJ5qOukEmYKcsKZbuRPGGFM4ZP8P7tv5Jz8hQhnpiNij1KXJm-fhF-4B8Vr0Y9JtFPabNAlaA3Jc7fX52Ah_5q3prbjgN9HeQ-jhliwkOwIEZExNbLb1U-fLVjpmAo_OEeNCGokqsEO9PmiNQMhWuoHndkhTjAMcJz64Dvx3SUr0GS1Z91c8xiYsIkxRbodkYau1y0]--></g></svg>