<svg xmlns="http://www.w3.org/2000/svg" xmlns:xlink="http://www.w3.org/1999/xlink" contentStyleType="text/css" data-diagram-type="ACTIVITY" height="642px" preserveAspectRatio="none" style="width:547px;height:642px;background:#FFFFFF;" version="1.1" viewBox="0 0 547 642" width="547px" zoomAndPan="magnify"><defs/><g><ellipse cx="321.5001" cy="20" fill="#222222" rx="10" ry="10" style="stroke:#222222;stroke-width:1;"/><rect fill="#F1F1F1" height="33.9688" rx="12.5" ry="12.5" style="stroke:#181818;stroke-width:0.5;" width="190.4961" x="226.2521" y="50"/><text fill="#000000" font-family="sans-serif" font-size="12" lengthAdjust="spacing" textLength="170.4961" x="236.2521" y="71.1387">Detectar presencia del dedo</text><polygon fill="#F1F1F1" points="239.9374,103.9688,403.0629,103.9688,415.0629,115.9688,403.0629,127.9688,239.9374,127.9688,227.9374,115.9688,239.9374,103.9688" style="stroke:#181818;stroke-width:0.5;"/><text fill="#000000" font-family="sans-serif" font-size="11" lengthAdjust="spacing" textLength="163.1255" x="239.9374" y="119.7769">Posici&#243;n y distancia correcta?</text><text fill="#000000" font-family="sans-serif" font-size="11" lengthAdjust="spacing" textLength="10.0386" x="217.8988" y="113.3745">S&#237;</text><text fill="#000000" font-family="sans-serif" font-size="11" lengthAdjust="spacing" textLength="14.9585" x="415.0629" y="113.3745">No</text><rect fill="#F1F1F1" height="33.9688" rx="12.5" ry="12.5" style="stroke:#181818;stroke-width:0.5;" width="178.1211" x="89.8865" y="137.9688"/><text fill="#000000" font-family="sans-serif" font-size="12" lengthAdjust="spacing" textLength="158.1211" x="99.8865" y="159.1074">Activar iluminaci&#243;n (LEDs)</text><rect fill="#F1F1F1" height="33.9688" rx="12.5" ry="12.5" style="stroke:#181818;stroke-width:0.5;" width="215.5977" x="71.1482" y="191.9375"/><text fill="#000000" font-family="sans-serif" font-size="12" lengthAdjust="spacing" textLength="195.5977" x="81.1482" y="213.0762">Capturar imagen (Sensor CMOS)</text><rect fill="#F1F1F1" height="33.9688" rx="12.5" ry="12.5" style="stroke:#181818;stroke-width:0.5;" width="232.7363" x="62.5789" y="245.9063"/><text fill="#000000" font-family="sans-serif" font-size="12" lengthAdjust="spacing" textLength="212.7363" x="72.5789" y="267.0449">Mejorar calidad y segmentar huella</text><rect fill="#F1F1F1" height="33.9688" rx="12.5" ry="12.5" style="stroke:#181818;stroke-width:0.5;" width="296.7969" x="30.5486" y="299.875"/><text fill="#000000" font-family="sans-serif" font-size="12" lengthAdjust="spacing" textLength="276.7969" x="40.5486" y="321.0137">Extraer caracter&#237;sticas biom&#233;tricas (minucias)</text><rect fill="#F1F1F1" height="33.9688" rx="12.5" ry="12.5" style="stroke:#181818;stroke-width:0.5;" width="221.9258" x="67.9841" y="353.8438"/><text fill="#000000" font-family="sans-serif" font-size="12" lengthAdjust="spacing" textLength="201.9258" x="77.9841" y="374.9824">Detectar vitalidad (Anti-Spoofing)</text><rect fill="#F1F1F1" height="33.9688" rx="12.5" ry="12.5" style="stroke:#181818;stroke-width:0.5;" width="277.0391" x="40.4275" y="407.8125"/><text fill="#000000" font-family="sans-serif" font-size="12" lengthAdjust="spacing" textLength="257.0391" x="50.4275" y="428.9512">Comparar con base de datos de referencia</text><polygon fill="#F1F1F1" points="107.8311,461.7813,250.063,461.7813,262.063,473.7813,250.063,485.7813,107.8311,485.7813,95.8311,473.7813,107.8311,461.7813" style="stroke:#181818;stroke-width:0.5;"/><text fill="#000000" font-family="sans-serif" font-size="11" lengthAdjust="spacing" textLength="142.2319" x="107.8311" y="477.5894">Coincidencia encontrada?</text><text fill="#000000" font-family="sans-serif" font-size="11" lengthAdjust="spacing" textLength="10.0386" x="85.7925" y="471.187">S&#237;</text><text fill="#000000" font-family="sans-serif" font-size="11" lengthAdjust="spacing" textLength="14.9585" x="262.063" y="471.187">No</text><rect fill="#F1F1F1" height="33.9688" rx="12.5" ry="12.5" style="stroke:#181818;stroke-width:0.5;" width="149.6621" x="11" y="495.7813"/><text fill="#000000" font-family="sans-serif" font-size="12" lengthAdjust="spacing" textLength="129.6621" x="21" y="516.9199">Autenticaci&#243;n exitosa</text><rect fill="#F1F1F1" height="33.9688" rx="12.5" ry="12.5" style="stroke:#181818;stroke-width:0.5;" width="178.2559" x="182.9351" y="495.7813"/><text fill="#000000" font-family="sans-serif" font-size="12" lengthAdjust="spacing" textLength="158.2559" x="192.9351" y="516.9199">Intento fallido / Reintentar</text><polygon fill="#F1F1F1" points="178.947,535.75,190.947,547.75,178.947,559.75,166.947,547.75,178.947,535.75" style="stroke:#181818;stroke-width:0.5;"/><rect fill="#F1F1F1" height="33.9688" rx="12.5" ry="12.5" style="stroke:#181818;stroke-width:0.5;" width="145.7246" x="391.1909" y="137.9688"/><text fill="#000000" font-family="sans-serif" font-size="12" lengthAdjust="spacing" textLength="125.7246" x="401.1909" y="159.1074">Reintentar detecci&#243;n</text><polygon fill="#F1F1F1" points="321.5001,565.75,333.5001,577.75,321.5001,589.75,309.5001,577.75,321.5001,565.75" style="stroke:#181818;stroke-width:0.5;"/><ellipse cx="321.5001" cy="620.75" fill="#FFFFFF" fill-opacity="0.00000" rx="11" ry="11" style="stroke:#222222;stroke-width:1;"/><ellipse cx="321.5001" cy="620.75" fill="#222222" rx="6" ry="6" style="stroke:#222222;stroke-width:1;"/><line style="stroke:#181818;stroke-width:1;" x1="321.5001" x2="321.5001" y1="30" y2="50"/><polygon fill="#181818" points="317.5001,40,321.5001,50,325.5001,40,321.5001,44" style="stroke:#181818;stroke-width:1;"/><line style="stroke:#181818;stroke-width:1;" x1="178.947" x2="178.947" y1="171.9375" y2="191.9375"/><polygon fill="#181818" points="174.947,181.9375,178.947,191.9375,182.947,181.9375,178.947,185.9375" style="stroke:#181818;stroke-width:1;"/><line style="stroke:#181818;stroke-width:1;" x1="178.947" x2="178.947" y1="225.9063" y2="245.9063"/><polygon fill="#181818" points="174.947,235.9063,178.947,245.9063,182.947,235.9063,178.947,239.9063" style="stroke:#181818;stroke-width:1;"/><line style="stroke:#181818;stroke-width:1;" x1="178.947" x2="178.947" y1="279.875" y2="299.875"/><polygon fill="#181818" points="174.947,289.875,178.947,299.875,182.947,289.875,178.947,293.875" style="stroke:#181818;stroke-width:1;"/><line style="stroke:#181818;stroke-width:1;" x1="178.947" x2="178.947" y1="333.8438" y2="353.8438"/><polygon fill="#181818" points="174.947,343.8438,178.947,353.8438,182.947,343.8438,178.947,347.8438" style="stroke:#181818;stroke-width:1;"/><line style="stroke:#181818;stroke-width:1;" x1="178.947" x2="178.947" y1="387.8125" y2="407.8125"/><polygon fill="#181818" points="174.947,397.8125,178.947,407.8125,182.947,397.8125,178.947,401.8125" style="stroke:#181818;stroke-width:1;"/><line style="stroke:#181818;stroke-width:1;" x1="95.8311" x2="85.8311" y1="473.7813" y2="473.7813"/><line style="stroke:#181818;stroke-width:1;" x1="85.8311" x2="85.8311" y1="473.7813" y2="495.7813"/><polygon fill="#181818" points="81.8311,485.7813,85.8311,495.7813,89.8311,485.7813,85.8311,489.7813" style="stroke:#181818;stroke-width:1;"/><line style="stroke:#181818;stroke-width:1;" x1="262.063" x2="272.063" y1="473.7813" y2="473.7813"/><line style="stroke:#181818;stroke-width:1;" x1="272.063" x2="272.063" y1="473.7813" y2="495.7813"/><polygon fill="#181818" points="268.063,485.7813,272.063,495.7813,276.063,485.7813,272.063,489.7813" style="stroke:#181818;stroke-width:1;"/><line style="stroke:#181818;stroke-width:1;" x1="85.8311" x2="85.8311" y1="529.75" y2="547.75"/><line style="stroke:#181818;stroke-width:1;" x1="85.8311" x2="166.947" y1="547.75" y2="547.75"/><polygon fill="#181818" points="156.947,543.75,166.947,547.75,156.947,551.75,160.947,547.75" style="stroke:#181818;stroke-width:1;"/><line style="stroke:#181818;stroke-width:1;" x1="272.063" x2="272.063" y1="529.75" y2="547.75"/><line style="stroke:#181818;stroke-width:1;" x1="272.063" x2="190.947" y1="547.75" y2="547.75"/><polygon fill="#181818" points="200.947,543.75,190.947,547.75,200.947,551.75,196.947,547.75" style="stroke:#181818;stroke-width:1;"/><line style="stroke:#181818;stroke-width:1;" x1="178.947" x2="178.947" y1="441.7813" y2="461.7813"/><polygon fill="#181818" points="174.947,451.7813,178.947,461.7813,182.947,451.7813,178.947,455.7813" style="stroke:#181818;stroke-width:1;"/><line style="stroke:#181818;stroke-width:1;" x1="227.9374" x2="178.947" y1="115.9688" y2="115.9688"/><line style="stroke:#181818;stroke-width:1;" x1="178.947" x2="178.947" y1="115.9688" y2="137.9688"/><polygon fill="#181818" points="174.947,127.9688,178.947,137.9688,182.947,127.9688,178.947,131.9688" style="stroke:#181818;stroke-width:1;"/><line style="stroke:#181818;stroke-width:1;" x1="415.0629" x2="464.0532" y1="115.9688" y2="115.9688"/><line style="stroke:#181818;stroke-width:1;" x1="464.0532" x2="464.0532" y1="115.9688" y2="137.9688"/><polygon fill="#181818" points="460.0532,127.9688,464.0532,137.9688,468.0532,127.9688,464.0532,131.9688" style="stroke:#181818;stroke-width:1;"/><line style="stroke:#181818;stroke-width:1;" x1="178.947" x2="178.947" y1="559.75" y2="577.75"/><line style="stroke:#181818;stroke-width:1;" x1="178.947" x2="309.5001" y1="577.75" y2="577.75"/><polygon fill="#181818" points="299.5001,573.75,309.5001,577.75,299.5001,581.75,303.5001,577.75" style="stroke:#181818;stroke-width:1;"/><line style="stroke:#181818;stroke-width:1;" x1="464.0532" x2="464.0532" y1="171.9375" y2="577.75"/><line style="stroke:#181818;stroke-width:1;" x1="464.0532" x2="333.5001" y1="577.75" y2="577.75"/><polygon fill="#181818" points="343.5001,573.75,333.5001,577.75,343.5001,581.75,339.5001,577.75" style="stroke:#181818;stroke-width:1;"/><line style="stroke:#181818;stroke-width:1;" x1="321.5001" x2="321.5001" y1="83.9688" y2="103.9688"/><polygon fill="#181818" points="317.5001,93.9688,321.5001,103.9688,325.5001,93.9688,321.5001,97.9688" style="stroke:#181818;stroke-width:1;"/><line style="stroke:#181818;stroke-width:1;" x1="321.5001" x2="321.5001" y1="589.75" y2="609.75"/><polygon fill="#181818" points="317.5001,599.75,321.5001,609.75,325.5001,599.75,321.5001,603.75" style="stroke:#181818;stroke-width:1;"/><!--SRC=[RP0zRiCm38Ntd8AZFHJTaw48aWm5chPeJi18TCB25Ws93j8ZTSZK8_XYfMpN1OeE4lJpFVBn9SMe2u3bbfISNQ2Db2WuHl1Ks_Aoid-ke7YLn8xxhm0Vu3af3fIJ6BFoeGGzKu3YqDzAKrZDjLE-M4ckkuO3ZjhYQRTDvMeaDjXg5pFIu6aGKqWIORD_EVmmUtgNZ3YisQEtvebE3OLizjnHNUC4xguQaJ8OqId5_fQK7IOuiZJzfyRXKfYLpepF7kR9BwnJYs8TbEyEhKZ5uJIRbQR5mOa4E68YImSyggHyY5HH788RyPpOHjWU_1YdxHBCeVydgXnMfpQJMHnZeYjRuQaMrTQiU9OPVWmP5gYmDiS2z_16FBnXd2J1SxNuArt-OkRPvXwQPSN89vNs6m00]--></g></svg>