<svg xmlns="http://www.w3.org/2000/svg" xmlns:xlink="http://www.w3.org/1999/xlink" contentStyleType="text/css" data-diagram-type="SEQUENCE" height="636px" preserveAspectRatio="none" style="width:1791px;height:636px;background:#FFFFFF;" version="1.1" viewBox="0 0 1791 636" width="1791px" zoomAndPan="magnify"><defs/><g><rect fill="#FFFFFF" fill-opacity="0.00000" height="281.8047" style="stroke:#000000;stroke-width:1.5;" width="1774.7197" x="10" y="256.9609"/><rect fill="#FFFFFF" fill-opacity="0.00000" height="148.4688" style="stroke:#000000;stroke-width:1.5;" width="1754.7197" x="20" y="339.3594"/><g><title>Usuario</title><rect fill="#FFFFFF" fill-opacity="0.00000" height="474.4688" width="8" x="55.6021" y="81.2969"/><line style="stroke:#181818;stroke-width:0.5;stroke-dasharray:5.0,5.0;" x1="59" x2="59" y1="81.2969" y2="555.7656"/></g><g><title>Sensor de Proximidad</title><rect fill="#FFFFFF" fill-opacity="0.00000" height="474.4688" width="8" x="325.7007" y="81.2969"/><line style="stroke:#181818;stroke-width:0.5;stroke-dasharray:5.0,5.0;" x1="329.0972" x2="329.0972" y1="81.2969" y2="555.7656"/></g><g><title>M&#243;dulo de Iluminaci&#243;n</title><rect fill="#FFFFFF" fill-opacity="0.00000" height="474.4688" width="8" x="607.8599" y="81.2969"/><line style="stroke:#181818;stroke-width:0.5;stroke-dasharray:5.0,5.0;" x1="611.7817" x2="611.7817" y1="81.2969" y2="555.7656"/></g><g><title>M&#243;dulo de Captura de Imagen</title><rect fill="#FFFFFF" fill-opacity="0.00000" height="474.4688" width="8" x="885.3789" y="81.2969"/><line style="stroke:#181818;stroke-width:0.5;stroke-dasharray:5.0,5.0;" x1="889.2202" x2="889.2202" y1="81.2969" y2="555.7656"/></g><g><title>M&#243;dulo de Procesamiento</title><rect fill="#FFFFFF" fill-opacity="0.00000" height="474.4688" width="8" x="1107.6226" y="81.2969"/><line style="stroke:#181818;stroke-width:0.5;stroke-dasharray:5.0,5.0;" x1="1110.9849" x2="1110.9849" y1="81.2969" y2="555.7656"/></g><g><title>Base de Datos de Usuarios</title><rect fill="#FFFFFF" fill-opacity="0.00000" height="474.4688" width="8" x="1426.1221" y="81.2969"/><line style="stroke:#181818;stroke-width:0.5;stroke-dasharray:5.0,5.0;" x1="1430.0732" x2="1430.0732" y1="81.2969" y2="555.7656"/></g><g><title>Sistema de Control de Acceso</title><rect fill="#FFFFFF" fill-opacity="0.00000" height="474.4688" width="8" x="1648.9453" y="81.2969"/><line style="stroke:#181818;stroke-width:0.5;stroke-dasharray:5.0,5.0;" x1="1652.1709" x2="1652.1709" y1="81.2969" y2="555.7656"/></g><g><text fill="#000000" font-family="sans-serif" font-size="14" lengthAdjust="spacing" textLength="53.2041" x="30" y="77.9951">Usuario</text><ellipse cx="59.6021" cy="13.5" fill="#E2E2F0" rx="8" ry="8" style="stroke:#181818;stroke-width:0.5;"/><path d="M59.6021,21.5 L59.6021,48.5 M46.6021,29.5 L72.6021,29.5 M59.6021,48.5 L46.6021,63.5 M59.6021,48.5 L72.6021,63.5 " fill="#FFFFFF" fill-opacity="0.00000" style="stroke:#181818;stroke-width:0.5;"/></g><g><text fill="#000000" font-family="sans-serif" font-size="14" lengthAdjust="spacing" textLength="53.2041" x="30" y="567.7607">Usuario</text><ellipse cx="59.6021" cy="579.5625" fill="#E2E2F0" rx="8" ry="8" style="stroke:#181818;stroke-width:0.5;"/><path d="M59.6021,587.5625 L59.6021,614.5625 M46.6021,595.5625 L72.6021,595.5625 M59.6021,614.5625 L46.6021,629.5625 M59.6021,614.5625 L72.6021,629.5625 " fill="#FFFFFF" fill-opacity="0.00000" style="stroke:#181818;stroke-width:0.5;"/></g><g><rect fill="#E2E2F0" height="30.2969" rx="2.5" ry="2.5" style="stroke:#181818;stroke-width:0.5;" width="167.207" x="246.0972" y="50"/><text fill="#000000" font-family="sans-serif" font-size="14" lengthAdjust="spacing" textLength="153.207" x="253.0972" y="69.9951">Sensor de Proximidad</text></g><g><rect fill="#E2E2F0" height="30.2969" rx="2.5" ry="2.5" style="stroke:#181818;stroke-width:0.5;" width="167.207" x="246.0972" y="554.7656"/><text fill="#000000" font-family="sans-serif" font-size="14" lengthAdjust="spacing" textLength="153.207" x="253.0972" y="574.7607">Sensor de Proximidad</text></g><g><rect fill="#E2E2F0" height="30.2969" rx="2.5" ry="2.5" style="stroke:#181818;stroke-width:0.5;" width="172.1563" x="525.7817" y="50"/><text fill="#000000" font-family="sans-serif" font-size="14" lengthAdjust="spacing" textLength="158.1563" x="532.7817" y="69.9951">M&#243;dulo de Iluminaci&#243;n</text></g><g><rect fill="#E2E2F0" height="30.2969" rx="2.5" ry="2.5" style="stroke:#181818;stroke-width:0.5;" width="172.1563" x="525.7817" y="554.7656"/><text fill="#000000" font-family="sans-serif" font-size="14" lengthAdjust="spacing" textLength="158.1563" x="532.7817" y="574.7607">M&#243;dulo de Iluminaci&#243;n</text></g><g><rect fill="#E2E2F0" height="30.2969" rx="2.5" ry="2.5" style="stroke:#181818;stroke-width:0.5;" width="226.3174" x="776.2202" y="50"/><text fill="#000000" font-family="sans-serif" font-size="14" lengthAdjust="spacing" textLength="212.3174" x="783.2202" y="69.9951">M&#243;dulo de Captura de Imagen</text></g><g><rect fill="#E2E2F0" height="30.2969" rx="2.5" ry="2.5" style="stroke:#181818;stroke-width:0.5;" width="226.3174" x="776.2202" y="554.7656"/><text fill="#000000" font-family="sans-serif" font-size="14" lengthAdjust="spacing" textLength="212.3174" x="783.2202" y="574.7607">M&#243;dulo de Captura de Imagen</text></g><g><rect fill="#E2E2F0" height="30.2969" rx="2.5" ry="2.5" style="stroke:#181818;stroke-width:0.5;" width="195.2754" x="1013.9849" y="50"/><text fill="#000000" font-family="sans-serif" font-size="14" lengthAdjust="spacing" textLength="181.2754" x="1020.9849" y="69.9951">M&#243;dulo de Procesamiento</text></g><g><rect fill="#E2E2F0" height="30.2969" rx="2.5" ry="2.5" style="stroke:#181818;stroke-width:0.5;" width="195.2754" x="1013.9849" y="554.7656"/><text fill="#000000" font-family="sans-serif" font-size="14" lengthAdjust="spacing" textLength="181.2754" x="1020.9849" y="574.7607">M&#243;dulo de Procesamiento</text></g><g><rect fill="#E2E2F0" height="30.2969" rx="2.5" ry="2.5" style="stroke:#181818;stroke-width:0.5;" width="202.0977" x="1329.0732" y="50"/><text fill="#000000" font-family="sans-serif" font-size="14" lengthAdjust="spacing" textLength="188.0977" x="1336.0732" y="69.9951">Base de Datos de Usuarios</text></g><g><rect fill="#E2E2F0" height="30.2969" rx="2.5" ry="2.5" style="stroke:#181818;stroke-width:0.5;" width="202.0977" x="1329.0732" y="554.7656"/><text fill="#000000" font-family="sans-serif" font-size="14" lengthAdjust="spacing" textLength="188.0977" x="1336.0732" y="574.7607">Base de Datos de Usuarios</text></g><g><rect fill="#E2E2F0" height="30.2969" rx="2.5" ry="2.5" style="stroke:#181818;stroke-width:0.5;" width="223.5488" x="1541.1709" y="50"/><text fill="#000000" font-family="sans-serif" font-size="14" lengthAdjust="spacing" textLength="209.5488" x="1548.1709" y="69.9951">Sistema de Control de Acceso</text></g><g><rect fill="#E2E2F0" height="30.2969" rx="2.5" ry="2.5" style="stroke:#181818;stroke-width:0.5;" width="223.5488" x="1541.1709" y="554.7656"/><text fill="#000000" font-family="sans-serif" font-size="14" lengthAdjust="spacing" textLength="209.5488" x="1548.1709" y="574.7607">Sistema de Control de Acceso</text></g><g><polygon fill="#181818" points="317.7007,108.4297,327.7007,112.4297,317.7007,116.4297,321.7007,112.4297" style="stroke:#181818;stroke-width:1;"/><line style="stroke:#181818;stroke-width:1;" x1="59.6021" x2="323.7007" y1="112.4297" y2="112.4297"/><text fill="#000000" font-family="sans-serif" font-size="13" lengthAdjust="spacing" textLength="246.0986" x="66.6021" y="107.3638">Coloca la mano en la zona de captura</text></g><g><polygon fill="#181818" points="599.8599,137.5625,609.8599,141.5625,599.8599,145.5625,603.8599,141.5625" style="stroke:#181818;stroke-width:1;"/><line style="stroke:#181818;stroke-width:1;" x1="329.7007" x2="605.8599" y1="141.5625" y2="141.5625"/><text fill="#000000" font-family="sans-serif" font-size="13" lengthAdjust="spacing" textLength="258.1592" x="336.7007" y="136.4966">Detecta la mano y activa la iluminaci&#243;n</text></g><g><polygon fill="#181818" points="877.3789,166.6953,887.3789,170.6953,877.3789,174.6953,881.3789,170.6953" style="stroke:#181818;stroke-width:1;"/><line style="stroke:#181818;stroke-width:1;" x1="611.8599" x2="883.3789" y1="170.6953" y2="170.6953"/><text fill="#000000" font-family="sans-serif" font-size="13" lengthAdjust="spacing" textLength="253.519" x="618.8599" y="165.6294">Mejora la visibilidad y activa la c&#225;mara</text></g><g><polygon fill="#181818" points="1099.6226,195.8281,1109.6226,199.8281,1099.6226,203.8281,1103.6226,199.8281" style="stroke:#181818;stroke-width:1;"/><line style="stroke:#181818;stroke-width:1;" x1="889.3789" x2="1105.6226" y1="199.8281" y2="199.8281"/><text fill="#000000" font-family="sans-serif" font-size="13" lengthAdjust="spacing" textLength="198.2437" x="896.3789" y="194.7622">Captura imagen de las huellas</text></g><g><line style="stroke:#181818;stroke-width:1;" x1="1111.6226" x2="1153.6226" y1="228.9609" y2="228.9609"/><line style="stroke:#181818;stroke-width:1;" x1="1153.6226" x2="1153.6226" y1="228.9609" y2="241.9609"/><line style="stroke:#181818;stroke-width:1;" x1="1112.6226" x2="1153.6226" y1="241.9609" y2="241.9609"/><polygon fill="#181818" points="1122.6226,237.9609,1112.6226,241.9609,1122.6226,245.9609,1118.6226,241.9609" style="stroke:#181818;stroke-width:1;"/><text fill="#000000" font-family="sans-serif" font-size="13" lengthAdjust="spacing" textLength="180.8257" x="1118.6226" y="223.895">Segmenta y mejora imagen</text></g><path d="M10,256.9609 L74.4429,256.9609 L74.4429,264.0938 L64.4429,274.0938 L10,274.0938 L10,256.9609 " fill="#EEEEEE" style="stroke:#000000;stroke-width:1.5;"/><rect fill="#FFFFFF" fill-opacity="0.00000" height="281.8047" style="stroke:#000000;stroke-width:1.5;" width="1774.7197" x="10" y="256.9609"/><text fill="#000000" font-family="sans-serif" font-size="13" font-weight="bold" lengthAdjust="spacing" textLength="19.4429" x="25" y="270.0278">alt</text><text fill="#000000" font-family="sans-serif" font-size="11" font-weight="bold" lengthAdjust="spacing" textLength="97.4585" x="89.4429" y="269.1714">[Imagen v&#225;lida]</text><g><polygon fill="#181818" points="1418.1221,291.2266,1428.1221,295.2266,1418.1221,299.2266,1422.1221,295.2266" style="stroke:#181818;stroke-width:1;"/><line style="stroke:#181818;stroke-width:1;" x1="1111.6226" x2="1424.1221" y1="295.2266" y2="295.2266"/><text fill="#000000" font-family="sans-serif" font-size="13" lengthAdjust="spacing" textLength="191.7754" x="1118.6226" y="290.1606">Compara huella con registros</text></g><g><polygon fill="#181818" points="1122.6226,320.3594,1112.6226,324.3594,1122.6226,328.3594,1118.6226,324.3594" style="stroke:#181818;stroke-width:1;"/><line style="stroke:#181818;stroke-width:1;" x1="1116.6226" x2="1429.1221" y1="324.3594" y2="324.3594"/><text fill="#000000" font-family="sans-serif" font-size="13" lengthAdjust="spacing" textLength="294.4995" x="1128.6226" y="319.2935">Responde con coincidencia o no coincidencia</text></g><path d="M20,339.3594 L84.4429,339.3594 L84.4429,346.4922 L74.4429,356.4922 L20,356.4922 L20,339.3594 " fill="#EEEEEE" style="stroke:#000000;stroke-width:1.5;"/><rect fill="#FFFFFF" fill-opacity="0.00000" height="148.4688" style="stroke:#000000;stroke-width:1.5;" width="1754.7197" x="20" y="339.3594"/><text fill="#000000" font-family="sans-serif" font-size="13" font-weight="bold" lengthAdjust="spacing" textLength="19.4429" x="35" y="352.4263">alt</text><text fill="#000000" font-family="sans-serif" font-size="11" font-weight="bold" lengthAdjust="spacing" textLength="104.6504" x="99.4429" y="351.5698">[Huella coincide]</text><g><polygon fill="#181818" points="1640.9453,373.625,1650.9453,377.625,1640.9453,381.625,1644.9453,377.625" style="stroke:#181818;stroke-width:1;"/><line style="stroke:#181818;stroke-width:1;" x1="1111.6226" x2="1646.9453" y1="377.625" y2="377.625"/><text fill="#000000" font-family="sans-serif" font-size="13" lengthAdjust="spacing" textLength="131.1045" x="1118.6226" y="372.5591">Usuario autenticado</text></g><g><polygon fill="#181818" points="70.6021,402.7578,60.6021,406.7578,70.6021,410.7578,66.6021,406.7578" style="stroke:#181818;stroke-width:1;"/><line style="stroke:#181818;stroke-width:1;" x1="64.6021" x2="1651.9453" y1="406.7578" y2="406.7578"/><text fill="#000000" font-family="sans-serif" font-size="13" lengthAdjust="spacing" textLength="116.6001" x="76.6021" y="401.6919">Acceso concedido</text></g><line style="stroke:#000000;stroke-width:1;stroke-dasharray:2.0,2.0;" x1="20" x2="1774.7197" y1="415.7578" y2="415.7578"/><text fill="#000000" font-family="sans-serif" font-size="11" font-weight="bold" lengthAdjust="spacing" textLength="123.8682" x="25" y="425.9683">[Huella no coincide]</text><g><polygon fill="#181818" points="1640.9453,446.6953,1650.9453,450.6953,1640.9453,454.6953,1644.9453,450.6953" style="stroke:#181818;stroke-width:1;"/><line style="stroke:#181818;stroke-width:1;" x1="1111.6226" x2="1646.9453" y1="450.6953" y2="450.6953"/><text fill="#000000" font-family="sans-serif" font-size="13" lengthAdjust="spacing" textLength="150.1792" x="1118.6226" y="445.6294">Usuario no identificado</text></g><g><polygon fill="#181818" points="70.6021,475.8281,60.6021,479.8281,70.6021,483.8281,66.6021,479.8281" style="stroke:#181818;stroke-width:1;"/><line style="stroke:#181818;stroke-width:1;" x1="64.6021" x2="1651.9453" y1="479.8281" y2="479.8281"/><text fill="#000000" font-family="sans-serif" font-size="13" lengthAdjust="spacing" textLength="114.9561" x="76.6021" y="474.7622">Acceso denegado</text></g><line style="stroke:#000000;stroke-width:1;stroke-dasharray:2.0,2.0;" x1="10" x2="1784.7197" y1="495.8281" y2="495.8281"/><text fill="#000000" font-family="sans-serif" font-size="11" font-weight="bold" lengthAdjust="spacing" textLength="116.6763" x="15" y="506.0386">[Imagen no v&#225;lida]</text><g><polygon fill="#181818" points="70.6021,526.7656,60.6021,530.7656,70.6021,534.7656,66.6021,530.7656" style="stroke:#181818;stroke-width:1;"/><line style="stroke:#181818;stroke-width:1;" x1="64.6021" x2="1110.6226" y1="530.7656" y2="530.7656"/><text fill="#000000" font-family="sans-serif" font-size="13" lengthAdjust="spacing" textLength="195.6284" x="76.6021" y="525.6997">Error en la captura, reintentar</text></g><!--SRC=[ZPDDRjim48NtFCKWw_O2NXI8fGBrGe1HeGUOKbDt2f9Za9JHzZOvGuxWYtNueyH9aQ9QM0JrpNipZpJQB16-f1KZYpbZp6pvZ273tKmXwRU5u1Zb9tjUSBa3J30VNuBJzN5PdHJou5RF0IrV7qDbfyERx83dl4QiPHvFr0g6jmkq3Ki9FLF8qjHVTRB7H8KSCKigYpvOglH-V3KWfqo-DZ18o55SMTvRDMdoyt1lJ9U0znzqy9sIJYo2G_0O12YKvMy9LSQsaSnyBFXqsC58cMn-vdy1sioNki4tOPdfK4e6BPdeXyGAN3ZnLtOb-1U5zlhWKMs6MZELhdgMN8CihJZj__jAJjzcEcxSJ2UlwQ7A-MRJAen1b_inmENwK3mDwDDAzsCPt6jws4N1Ie189uqmIgheVjnSFbCwIoXvA6I5W-M5z0T1G3EutQcLnVlJ9jk-rVtd1lGaTjjX0gvPPs2BYpnX2XIk8xj-YgK1Imjta9nUZsvqqyU_l1GhdMR-zbz-Yj9fuoWifbhsN5NhxsYV53x6gF-sTf_wFNgd2NCems8qglO7]--></g></svg>