<svg xmlns="http://www.w3.org/2000/svg" xmlns:xlink="http://www.w3.org/1999/xlink" contentStyleType="text/css" data-diagram-type="DESCRIPTION" height="686px" preserveAspectRatio="none" style="width:1386px;height:686px;background:#FFFFFF;" version="1.1" viewBox="0 0 1386 686" width="1386px" zoomAndPan="magnify"><defs/><g><!--entity Usuario--><g id="elem_Usuario"><ellipse cx="286.9621" cy="14" fill="#F1F1F1" rx="8" ry="8" style="stroke:#181818;stroke-width:0.5;"/><path d="M286.9621,22 L286.9621,49 M273.9621,30 L299.9621,30 M286.9621,49 L273.9621,64 M286.9621,49 L299.9621,64 " fill="#FFFFFF" fill-opacity="0.00000" style="stroke:#181818;stroke-width:0.5;"/><text fill="#000000" font-family="sans-serif" font-size="14" lengthAdjust="spacing" textLength="53.2041" x="260.36" y="78.4951">Usuario</text></g><!--entity Administrador--><g id="elem_Administrador"><ellipse cx="981.96" cy="14" fill="#F1F1F1" rx="8" ry="8" style="stroke:#181818;stroke-width:0.5;"/><path d="M981.96,22 L981.96,49 M968.96,30 L994.96,30 M981.96,49 L968.96,64 M981.96,49 L994.96,64 " fill="#FFFFFF" fill-opacity="0.00000" style="stroke:#181818;stroke-width:0.5;"/><text fill="#000000" font-family="sans-serif" font-size="14" lengthAdjust="spacing" textLength="99.0801" x="932.42" y="78.4951">Administrador</text></g><g id="elem_D1"><ellipse cx="129.9628" cy="172.7226" fill="#F1F1F1" rx="123.9628" ry="27.1926" style="stroke:#181818;stroke-width:0.5;"/><text fill="#000000" font-family="sans-serif" font-size="14" lengthAdjust="spacing" textLength="215.79" x="22.0678" y="175.5692">Detectar presencia del usuario</text></g><g id="elem_D2"><ellipse cx="218.9582" cy="309.1236" fill="#F1F1F1" rx="100.9182" ry="22.5836" style="stroke:#181818;stroke-width:0.5;"/><text fill="#000000" font-family="sans-serif" font-size="14" lengthAdjust="spacing" textLength="166.0791" x="135.9186" y="311.9703">Capturar huella dactilar</text></g><g id="elem_D3"><ellipse cx="218.9649" cy="441.675" fill="#F1F1F1" rx="118.2749" ry="26.055" style="stroke:#181818;stroke-width:0.5;"/><text fill="#000000" font-family="sans-serif" font-size="14" lengthAdjust="spacing" textLength="203.6699" x="117.1299" y="444.5217">Procesar imagen de la huella</text></g><g id="elem_D4"><ellipse cx="218.9628" cy="548.0166" fill="#F1F1F1" rx="84.4828" ry="19.2966" style="stroke:#181818;stroke-width:0.5;"/><text fill="#000000" font-family="sans-serif" font-size="14" lengthAdjust="spacing" textLength="129.1309" x="154.2944" y="550.8989">Verificar identidad</text></g><g id="elem_D5"><ellipse cx="122.9633" cy="662.5727" fill="#F1F1F1" rx="79.2633" ry="18.2527" style="stroke:#181818;stroke-width:0.5;"/><text fill="#000000" font-family="sans-serif" font-size="14" lengthAdjust="spacing" textLength="116.7305" x="62.6494" y="666.035">Autorizar acceso</text></g><g id="elem_D6"><ellipse cx="314.9625" cy="662.5705" fill="#F1F1F1" rx="77.7525" ry="17.9505" style="stroke:#181818;stroke-width:0.5;"/><text fill="#000000" font-family="sans-serif" font-size="14" lengthAdjust="spacing" textLength="112.998" x="255.9093" y="666.2008">Denegar acceso</text></g><g id="elem_D7"><ellipse cx="461.9612" cy="172.7222" fill="#F1F1F1" rx="101.7612" ry="22.7522" style="stroke:#181818;stroke-width:0.5;"/><text fill="#000000" font-family="sans-serif" font-size="14" lengthAdjust="spacing" textLength="167.9316" x="377.9954" y="175.5689">Registrar nuevo usuario</text></g><g id="elem_D8"><ellipse cx="1168.9592" cy="309.1178" fill="#F1F1F1" rx="109.4392" ry="24.2878" style="stroke:#181818;stroke-width:0.5;"/><text fill="#000000" font-family="sans-serif" font-size="14" lengthAdjust="spacing" textLength="184.666" x="1076.6262" y="311.9645">Administrar base de datos</text></g><g id="elem_D9"><ellipse cx="735.9622" cy="172.7204" fill="#F1F1F1" rx="137.6022" ry="29.9204" style="stroke:#181818;stroke-width:0.5;"/><text fill="#000000" font-family="sans-serif" font-size="14" lengthAdjust="spacing" textLength="244.5762" x="613.6741" y="175.5671">Configurar par&#225;metros del sistema</text></g><g id="elem_D10"><ellipse cx="811.9577" cy="309.1175" fill="#F1F1F1" rx="135.4377" ry="29.4875" style="stroke:#181818;stroke-width:0.5;"/><text fill="#000000" font-family="sans-serif" font-size="14" lengthAdjust="spacing" textLength="240.0303" x="691.9425" y="311.9642">Actualizar software del dispositivo</text></g><g id="elem_D11"><ellipse cx="1104.9558" cy="172.7172" fill="#F1F1F1" rx="124.5358" ry="27.3072" style="stroke:#181818;stroke-width:0.5;"/><text fill="#000000" font-family="sans-serif" font-size="14" lengthAdjust="spacing" textLength="217.0068" x="996.4524" y="175.5638">Monitorear registros de acceso</text></g><g id="elem_D12"><ellipse cx="1261.9553" cy="441.6691" fill="#F1F1F1" rx="110.7953" ry="24.5591" style="stroke:#181818;stroke-width:0.5;"/><text fill="#000000" font-family="sans-serif" font-size="14" lengthAdjust="spacing" textLength="187.5986" x="1168.156" y="444.5157">Gestionar roles y permisos</text></g><!--link Usuario to D1--><g id="link_Usuario_D1"><path d="M259.97,66.49 C232.71,88.56 195.2643,118.8659 166.3943,142.2259 " fill="#FFFFFF" fill-opacity="0.00000" id="Usuario-to-D1" style="stroke:#181818;stroke-width:1;"/><polygon fill="#181818" points="161.73,146,171.2426,143.4484,165.6169,142.8549,166.2104,137.2293,161.73,146" style="stroke:#181818;stroke-width:1;"/></g><!--link Usuario to D2--><g id="link_Usuario_D2"><path d="M286.9,82.06 C285.97,114.53 282.48,162.49 270.96,202.64 C262.18,233.25 247.8439,260.5653 235.6039,281.2653 " fill="#FFFFFF" fill-opacity="0.00000" id="Usuario-to-D2" style="stroke:#181818;stroke-width:1;"/><polygon fill="#181818" points="232.55,286.43,240.5739,280.7189,235.0949,282.1261,233.6877,276.6471,232.55,286.43" style="stroke:#181818;stroke-width:1;"/></g><!--link D1 to D2--><g id="link_D1_D2"><path d="M147.33,199.95 C164.03,225.16 185.648,257.807 201.258,281.387 " fill="#FFFFFF" fill-opacity="0.00000" id="D1-to-D2" style="stroke:#181818;stroke-width:1;"/><polygon fill="#181818" points="204.57,286.39,202.9373,276.6774,201.81,282.2208,196.2666,281.0934,204.57,286.39" style="stroke:#181818;stroke-width:1;"/></g><!--link D2 to D3--><g id="link_D2_D3"><path d="M218.96,331.97 C218.96,354.91 218.96,384.94 218.96,409.16 " fill="#FFFFFF" fill-opacity="0.00000" id="D2-to-D3" style="stroke:#181818;stroke-width:1;"/><polygon fill="#181818" points="218.96,415.16,222.96,406.16,218.96,410.16,214.96,406.16,218.96,415.16" style="stroke:#181818;stroke-width:1;"/></g><!--link D3 to D4--><g id="link_D3_D4"><path d="M218.96,468.19 C218.96,486.78 218.96,505.53 218.96,522.3 " fill="#FFFFFF" fill-opacity="0.00000" id="D3-to-D4" style="stroke:#181818;stroke-width:1;"/><polygon fill="#181818" points="218.96,528.3,222.96,519.3,218.96,523.3,214.96,519.3,218.96,528.3" style="stroke:#181818;stroke-width:1;"/></g><!--link D4 to D5--><g id="link_D4_D5"><path d="M172.58,564.46 C156.94,571.95 140.95,582.61 130.96,597.31 C121.68,610.99 120.1558,624.1458 120.7658,637.9858 " fill="#FFFFFF" fill-opacity="0.00000" id="D4-to-D5" style="stroke:#181818;stroke-width:1;"/><polygon fill="#181818" points="121.03,643.98,124.6298,634.8126,120.8098,638.9848,116.6376,635.1649,121.03,643.98" style="stroke:#181818;stroke-width:1;"/><text fill="#000000" font-family="sans-serif" font-size="13" lengthAdjust="spacing" textLength="139.3564" x="131.96" y="610.3769">Identidad confirmada</text></g><!--link D4 to D6--><g id="link_D4_D6"><path d="M243.54,566.96 C254.22,575.45 266.45,586.17 275.96,597.31 C288.42,611.9 296.6407,625.6078 303.7607,639.1678 " fill="#FFFFFF" fill-opacity="0.00000" id="D4-to-D6" style="stroke:#181818;stroke-width:1;"/><polygon fill="#181818" points="306.55,644.48,305.9075,634.6521,304.2256,640.0531,298.8246,638.3712,306.55,644.48" style="stroke:#181818;stroke-width:1;"/><text fill="#000000" font-family="sans-serif" font-size="13" lengthAdjust="spacing" textLength="159.6816" x="289.96" y="610.3769">Identidad no confirmada</text></g><!--link Administrador to D7--><g id="link_Administrador_D7"><path d="M932.1,56.83 C838.18,79.78 640.7884,128.0154 534.9484,153.8854 " fill="#FFFFFF" fill-opacity="0.00000" id="Administrador-to-D7" style="stroke:#181818;stroke-width:1;"/><polygon fill="#181818" points="529.12,155.31,538.8124,157.0587,533.977,154.1228,536.9129,149.2875,529.12,155.31" style="stroke:#181818;stroke-width:1;"/></g><!--link Administrador to D8--><g id="link_Administrador_D8"><path d="M1031.85,48.34 C1092.58,55.68 1193.63,77.56 1246.96,142.8 C1277.27,179.87 1284.02,207.66 1260.96,249.64 C1252.03,265.89 1241.6632,275.2922 1225.8332,284.3822 " fill="#FFFFFF" fill-opacity="0.00000" id="Administrador-to-D8" style="stroke:#181818;stroke-width:1;"/><polygon fill="#181818" points="1220.63,287.37,1230.4266,286.3571,1224.966,284.8802,1226.4429,279.4195,1220.63,287.37" style="stroke:#181818;stroke-width:1;"/></g><!--link Administrador to D9--><g id="link_Administrador_D9"><path d="M932.18,70.36 C890.34,91.97 836.071,120.0067 793.551,141.9667 " fill="#FFFFFF" fill-opacity="0.00000" id="Administrador-to-D9" style="stroke:#181818;stroke-width:1;"/><polygon fill="#181818" points="788.22,144.72,798.052,144.1441,792.6625,142.4256,794.381,137.0361,788.22,144.72" style="stroke:#181818;stroke-width:1;"/></g><!--link Administrador to D10--><g id="link_Administrador_D10"><path d="M975.48,81.94 C966.25,126.03 945.7,199.71 904.96,249.64 C894.59,262.35 885.7849,269.9351 871.8949,278.6351 " fill="#FFFFFF" fill-opacity="0.00000" id="Administrador-to-D10" style="stroke:#181818;stroke-width:1;"/><polygon fill="#181818" points="866.81,281.82,876.5606,280.4325,871.0474,279.1659,872.3141,273.6527,866.81,281.82" style="stroke:#181818;stroke-width:1;"/></g><!--link Administrador to D11--><g id="link_Administrador_D11"><path d="M1018.2,82.08 C1038.04,102.58 1057.9561,123.1598 1075.7161,141.4998 " fill="#FFFFFF" fill-opacity="0.00000" id="Administrador-to-D11" style="stroke:#181818;stroke-width:1;"/><polygon fill="#181818" points="1079.89,145.81,1076.5026,136.562,1076.4117,142.2181,1070.7556,142.1273,1079.89,145.81" style="stroke:#181818;stroke-width:1;"/></g><!--link Administrador to D12--><g id="link_Administrador_D12"><path d="M1031.97,53.12 C1110.72,67.63 1257.59,99.89 1285.96,142.8 C1346.55,234.41 1379.95,286.81 1331.96,385.61 C1325.55,398.82 1319.0801,406.2505 1307.4101,414.8505 " fill="#FFFFFF" fill-opacity="0.00000" id="Administrador-to-D12" style="stroke:#181818;stroke-width:1;"/><polygon fill="#181818" points="1302.58,418.41,1312.1982,416.2909,1306.6051,415.4438,1307.4522,409.8507,1302.58,418.41" style="stroke:#181818;stroke-width:1;"/></g><!--reverse link D8 to D12--><g id="link_D8_D12"><path d="M1160.5374,339.6799 C1157.2074,355.4099 1156.96,370.06 1165.96,385.61 C1174.68,400.66 1189.23,411.95 1204.4,420.25 " fill="#FFFFFF" fill-opacity="0.00000" id="D8-backto-D12" style="stroke:#181818;stroke-width:1;"/><polygon fill="#181818" points="1161.78,333.81,1156.0028,341.7864,1160.7445,338.7016,1163.8293,343.4433,1161.78,333.81" style="stroke:#181818;stroke-width:1;"/><text fill="#000000" font-family="sans-serif" font-size="13" lengthAdjust="spacing" textLength="160.1958" x="1166.96" y="381.6769">Usa gesti&#243;n de permisos</text></g><!--reverse link D11 to D8--><g id="link_D11_D8"><path d="M1117.6744,205.9204 C1123.6344,220.6204 1129.19,233.54 1136.96,249.64 C1142.65,261.42 1149.55,274.19 1155.49,284.79 " fill="#FFFFFF" fill-opacity="0.00000" id="D11-backto-D8" style="stroke:#181818;stroke-width:1;"/><polygon fill="#181818" points="1115.42,200.36,1115.0947,210.2035,1117.2987,204.9936,1122.5085,207.1976,1115.42,200.36" style="stroke:#181818;stroke-width:1;"/><text fill="#000000" font-family="sans-serif" font-size="13" lengthAdjust="spacing" textLength="118.2378" x="1137.96" y="245.7069">Consulta registros</text></g><!--reverse link D9 to D10--><g id="link_D9_D10"><path d="M726.0749,208.8155 C723.2849,223.5655 723.69,235.41 730.96,249.64 C737.52,262.45 748.34,273.11 759.97,281.66 " fill="#FFFFFF" fill-opacity="0.00000" id="D9-backto-D10" style="stroke:#181818;stroke-width:1;"/><polygon fill="#181818" points="727.19,202.92,721.587,211.0198,726.2607,207.8329,729.4476,212.5066,727.19,202.92" style="stroke:#181818;stroke-width:1;"/><text fill="#000000" font-family="sans-serif" font-size="13" lengthAdjust="spacing" textLength="168.6445" x="731.96" y="245.7069">Depende de actualizaci&#243;n</text></g><!--SRC=[RPB1Yjmm38RlUGgH-y1cPdPtffJ2qa3feL0AsxjgQr93OWV9sTA-JP-XZx0lLZdEJ98bDrd-9El_PJGnC3pBWEn2WUFfoNREEucCDd1H3486XQ2iAPA9oD0p2NdZ42orCEJY4b2WhcRy8_PnOCL_3jIsocftro9dS3-3NpaO4WLTXmrvRGgAvweC7sRuEx6xE9DeIpuwYpOpnvbv6bI6-wCC6kqyZNQ_LEAfUNFzC5z_esQKp-07UWbhXO-BTsv6CVn86PtSOWoIoTF2Y-0lhXdTw95V_tOKESXedsW3wYQXvqLp4mTiHnKIBl4NCesyTT87ST6zN2s_cuk-1EzKEsaHPn7ZAokXrM97dqYY2pxXeIM1tz0JTqwk4gfzKKoV0tQx3sc_g-E-gAjRjC_HeQWFEJeMzJ57z_0Eoi_NXO59Td275iiRyh16V5XHgp-P2nwtagUjv7ahgRPjPQlDhDfGd-3zRfVYDEYp83J9lDT_uuUzsQQ6L1ay9KuNBqCRSLw74kUfqrqYQkh9MyfRcbPkKjloFm00]--></g></svg>