<svg xmlns="http://www.w3.org/2000/svg" xmlns:xlink="http://www.w3.org/1999/xlink" contentStyleType="text/css" data-diagram-type="CLASS" height="489px" preserveAspectRatio="none" style="width:762px;height:489px;background:#FFFFFF;" version="1.1" viewBox="0 0 762 489" width="762px" zoomAndPan="magnify"><defs/><g><!--class Usuario--><g id="elem_Usuario"><rect codeLine="1" fill="#F1F1F1" height="113.1875" id="Usuario" rx="2.5" ry="2.5" style="stroke:#181818;stroke-width:0.5;" width="185.2637" x="260.02" y="7"/><ellipse cx="321.7998" cy="23" fill="#ADD1B2" rx="11" ry="11" style="stroke:#181818;stroke-width:1;"/><path d="M324.7685,28.6406 Q324.1904,28.9375 323.5498,29.0781 Q322.9092,29.2344 322.206,29.2344 Q319.706,29.2344 318.3779,27.5938 Q317.0654,25.9375 317.0654,22.8125 Q317.0654,19.6875 318.3779,18.0313 Q319.706,16.375 322.206,16.375 Q322.9092,16.375 323.5498,16.5313 Q324.206,16.6875 324.7685,16.9844 L324.7685,19.7031 Q324.1435,19.125 323.5498,18.8594 Q322.956,18.5781 322.331,18.5781 Q320.9873,18.5781 320.2998,19.6563 Q319.6123,20.7188 319.6123,22.8125 Q319.6123,24.9063 320.2998,25.9844 Q320.9873,27.0469 322.331,27.0469 Q322.956,27.0469 323.5498,26.7813 Q324.1435,26.5 324.7685,25.9219 L324.7685,28.6406 Z " fill="#000000"/><text fill="#000000" font-family="sans-serif" font-size="14" lengthAdjust="spacing" textLength="53.2041" x="342.2998" y="27.8467">Usuario</text><line style="stroke:#181818;stroke-width:0.5;" x1="261.02" x2="444.2837" y1="39" y2="39"/><rect fill="#FFFFFF" fill-opacity="0.00000" height="6" style="stroke:#C82930;stroke-width:1;" width="6" x="268.02" y="49.6484"/><text fill="#000000" font-family="sans-serif" font-size="14" lengthAdjust="spacing" textLength="40.1953" x="280.02" y="55.9951">id: int</text><rect fill="#FFFFFF" fill-opacity="0.00000" height="6" style="stroke:#C82930;stroke-width:1;" width="6" x="268.02" y="65.9453"/><text fill="#000000" font-family="sans-serif" font-size="14" lengthAdjust="spacing" textLength="105.2803" x="280.02" y="72.292">nombre: String</text><rect fill="#FFFFFF" fill-opacity="0.00000" height="6" style="stroke:#C82930;stroke-width:1;" width="6" x="268.02" y="82.2422"/><text fill="#000000" font-family="sans-serif" font-size="14" lengthAdjust="spacing" textLength="159.2637" x="280.02" y="88.5889">huellaDactilar: Imagen</text><line style="stroke:#181818;stroke-width:0.5;" x1="261.02" x2="444.2837" y1="95.8906" y2="95.8906"/><ellipse cx="271.02" cy="109.5391" fill="#84BE84" rx="3" ry="3" style="stroke:#038048;stroke-width:1;"/><text fill="#000000" font-family="sans-serif" font-size="14" lengthAdjust="spacing" textLength="147.9023" x="280.02" y="112.8857">autenticar(): boolean</text></g><!--class Administrador--><g id="elem_Administrador"><rect codeLine="8" fill="#F1F1F1" height="113.1875" id="Administrador" rx="2.5" ry="2.5" style="stroke:#181818;stroke-width:0.5;" width="192.3525" x="72.47" y="196.48"/><ellipse cx="115.0426" cy="212.48" fill="#ADD1B2" rx="11" ry="11" style="stroke:#181818;stroke-width:1;"/><path d="M118.0114,218.1206 Q117.4332,218.4175 116.7926,218.5581 Q116.152,218.7144 115.4489,218.7144 Q112.9489,218.7144 111.6207,217.0738 Q110.3082,215.4175 110.3082,212.2925 Q110.3082,209.1675 111.6207,207.5113 Q112.9489,205.855 115.4489,205.855 Q116.152,205.855 116.7926,206.0113 Q117.4489,206.1675 118.0114,206.4644 L118.0114,209.1831 Q117.3864,208.605 116.7926,208.3394 Q116.1989,208.0581 115.5739,208.0581 Q114.2301,208.0581 113.5426,209.1363 Q112.8551,210.1988 112.8551,212.2925 Q112.8551,214.3863 113.5426,215.4644 Q114.2301,216.5269 115.5739,216.5269 Q116.1989,216.5269 116.7926,216.2613 Q117.3864,215.98 118.0114,215.4019 L118.0114,218.1206 Z " fill="#000000"/><text fill="#000000" font-family="sans-serif" font-size="14" lengthAdjust="spacing" textLength="99.0801" x="135.1699" y="217.3267">Administrador</text><line style="stroke:#181818;stroke-width:0.5;" x1="73.47" x2="263.8225" y1="228.48" y2="228.48"/><rect fill="#FFFFFF" fill-opacity="0.00000" height="6" style="stroke:#C82930;stroke-width:1;" width="6" x="80.47" y="239.1284"/><text fill="#000000" font-family="sans-serif" font-size="14" lengthAdjust="spacing" textLength="40.1953" x="92.47" y="245.4751">id: int</text><rect fill="#FFFFFF" fill-opacity="0.00000" height="6" style="stroke:#C82930;stroke-width:1;" width="6" x="80.47" y="255.4253"/><text fill="#000000" font-family="sans-serif" font-size="14" lengthAdjust="spacing" textLength="105.2803" x="92.47" y="261.772">nombre: String</text><line style="stroke:#181818;stroke-width:0.5;" x1="73.47" x2="263.8225" y1="269.0738" y2="269.0738"/><ellipse cx="83.47" cy="282.7222" fill="#84BE84" rx="3" ry="3" style="stroke:#038048;stroke-width:1;"/><text fill="#000000" font-family="sans-serif" font-size="14" lengthAdjust="spacing" textLength="137.3682" x="92.47" y="286.0689">gestionarUsuarios()</text><ellipse cx="83.47" cy="299.0191" fill="#84BE84" rx="3" ry="3" style="stroke:#038048;stroke-width:1;"/><text fill="#000000" font-family="sans-serif" font-size="14" lengthAdjust="spacing" textLength="166.3525" x="92.47" y="302.3657">administrarBaseDatos()</text></g><!--class HuellaDactilar--><g id="elem_HuellaDactilar"><rect codeLine="15" fill="#F1F1F1" height="80.5938" id="HuellaDactilar" rx="2.5" ry="2.5" style="stroke:#181818;stroke-width:0.5;" width="275.3203" x="479.99" y="23.3"/><ellipse cx="563.884" cy="39.3" fill="#ADD1B2" rx="11" ry="11" style="stroke:#181818;stroke-width:1;"/><path d="M566.8528,44.9406 Q566.2747,45.2375 565.634,45.3781 Q564.9934,45.5344 564.2903,45.5344 Q561.7903,45.5344 560.4622,43.8938 Q559.1497,42.2375 559.1497,39.1125 Q559.1497,35.9875 560.4622,34.3313 Q561.7903,32.675 564.2903,32.675 Q564.9934,32.675 565.634,32.8313 Q566.2903,32.9875 566.8528,33.2844 L566.8528,36.0031 Q566.2278,35.425 565.634,35.1594 Q565.0403,34.8781 564.4153,34.8781 Q563.0715,34.8781 562.384,35.9563 Q561.6965,37.0188 561.6965,39.1125 Q561.6965,41.2063 562.384,42.2844 Q563.0715,43.3469 564.4153,43.3469 Q565.0403,43.3469 565.634,43.0813 Q566.2278,42.8 566.8528,42.2219 L566.8528,44.9406 Z " fill="#000000"/><text fill="#000000" font-family="sans-serif" font-size="14" lengthAdjust="spacing" textLength="99.0322" x="584.384" y="44.1467">HuellaDactilar</text><line style="stroke:#181818;stroke-width:0.5;" x1="480.99" x2="754.3103" y1="55.3" y2="55.3"/><rect fill="#FFFFFF" fill-opacity="0.00000" height="6" style="stroke:#C82930;stroke-width:1;" width="6" x="487.99" y="65.9484"/><text fill="#000000" font-family="sans-serif" font-size="14" lengthAdjust="spacing" textLength="114.3652" x="499.99" y="72.2951">imagen: Imagen</text><line style="stroke:#181818;stroke-width:0.5;" x1="480.99" x2="754.3103" y1="79.5969" y2="79.5969"/><ellipse cx="490.99" cy="93.2453" fill="#84BE84" rx="3" ry="3" style="stroke:#038048;stroke-width:1;"/><text fill="#000000" font-family="sans-serif" font-size="14" lengthAdjust="spacing" textLength="249.3203" x="499.99" y="96.592">procesarHuella(): DatosBiometricos</text></g><!--class SistemaBiometrico--><g id="elem_SistemaBiometrico"><rect codeLine="20" fill="#F1F1F1" height="145.7813" id="SistemaBiometrico" rx="2.5" ry="2.5" style="stroke:#181818;stroke-width:0.5;" width="349.4014" x="310.95" y="180.19"/><ellipse cx="415.3519" cy="196.19" fill="#ADD1B2" rx="11" ry="11" style="stroke:#181818;stroke-width:1;"/><path d="M418.3206,201.8306 Q417.7425,202.1275 417.1019,202.2681 Q416.4612,202.4244 415.7581,202.4244 Q413.2581,202.4244 411.93,200.7838 Q410.6175,199.1275 410.6175,196.0025 Q410.6175,192.8775 411.93,191.2213 Q413.2581,189.565 415.7581,189.565 Q416.4612,189.565 417.1019,189.7213 Q417.7581,189.8775 418.3206,190.1744 L418.3206,192.8931 Q417.6956,192.315 417.1019,192.0494 Q416.5081,191.7681 415.8831,191.7681 Q414.5394,191.7681 413.8519,192.8463 Q413.1644,193.9088 413.1644,196.0025 Q413.1644,198.0963 413.8519,199.1744 Q414.5394,200.2369 415.8831,200.2369 Q416.5081,200.2369 417.1019,199.9713 Q417.6956,199.69 418.3206,199.1119 L418.3206,201.8306 Z " fill="#000000"/><text fill="#000000" font-family="sans-serif" font-size="14" lengthAdjust="spacing" textLength="132.0977" x="435.8519" y="201.0367">SistemaBiometrico</text><line style="stroke:#181818;stroke-width:0.5;" x1="311.95" x2="659.3514" y1="212.19" y2="212.19"/><line style="stroke:#181818;stroke-width:0.5;" x1="311.95" x2="659.3514" y1="220.19" y2="220.19"/><ellipse cx="321.95" cy="233.8384" fill="#84BE84" rx="3" ry="3" style="stroke:#038048;stroke-width:1;"/><text fill="#000000" font-family="sans-serif" font-size="14" lengthAdjust="spacing" textLength="191.0098" x="330.95" y="237.1851">detectarPresencia(Usuario)</text><ellipse cx="321.95" cy="250.1353" fill="#84BE84" rx="3" ry="3" style="stroke:#038048;stroke-width:1;"/><text fill="#000000" font-family="sans-serif" font-size="14" lengthAdjust="spacing" textLength="168.1162" x="330.95" y="253.482">capturarHuella(Usuario)</text><ellipse cx="321.95" cy="266.4322" fill="#84BE84" rx="3" ry="3" style="stroke:#038048;stroke-width:1;"/><text fill="#000000" font-family="sans-serif" font-size="14" lengthAdjust="spacing" textLength="215.4756" x="330.95" y="269.7789">procesarHuella(HuellaDactilar)</text><ellipse cx="321.95" cy="282.7291" fill="#84BE84" rx="3" ry="3" style="stroke:#038048;stroke-width:1;"/><text fill="#000000" font-family="sans-serif" font-size="14" lengthAdjust="spacing" textLength="323.4014" x="330.95" y="286.0757">verificarIdentidad(DatosBiometricos): boolean</text><ellipse cx="321.95" cy="299.0259" fill="#84BE84" rx="3" ry="3" style="stroke:#038048;stroke-width:1;"/><text fill="#000000" font-family="sans-serif" font-size="14" lengthAdjust="spacing" textLength="176.4082" x="330.95" y="302.3726">autorizarAcceso(Usuario)</text><ellipse cx="321.95" cy="315.3228" fill="#84BE84" rx="3" ry="3" style="stroke:#038048;stroke-width:1;"/><text fill="#000000" font-family="sans-serif" font-size="14" lengthAdjust="spacing" textLength="171.7803" x="330.95" y="318.6695">denegarAcceso(Usuario)</text></g><!--class BaseDeDatos--><g id="elem_BaseDeDatos"><rect codeLine="29" fill="#F1F1F1" height="96.8906" id="BaseDeDatos" rx="2.5" ry="2.5" style="stroke:#181818;stroke-width:0.5;" width="323.2949" x="7" y="385.97"/><ellipse cx="117.3013" cy="401.97" fill="#ADD1B2" rx="11" ry="11" style="stroke:#181818;stroke-width:1;"/><path d="M120.27,407.6106 Q119.6919,407.9075 119.0513,408.0481 Q118.4106,408.2044 117.7075,408.2044 Q115.2075,408.2044 113.8794,406.5638 Q112.5669,404.9075 112.5669,401.7825 Q112.5669,398.6575 113.8794,397.0013 Q115.2075,395.345 117.7075,395.345 Q118.4106,395.345 119.0513,395.5013 Q119.7075,395.6575 120.27,395.9544 L120.27,398.6731 Q119.645,398.095 119.0513,397.8294 Q118.4575,397.5481 117.8325,397.5481 Q116.4888,397.5481 115.8013,398.6263 Q115.1138,399.6888 115.1138,401.7825 Q115.1138,403.8763 115.8013,404.9544 Q116.4888,406.0169 117.8325,406.0169 Q118.4575,406.0169 119.0513,405.7513 Q119.645,405.47 120.27,404.8919 L120.27,407.6106 Z " fill="#000000"/><text fill="#000000" font-family="sans-serif" font-size="14" lengthAdjust="spacing" textLength="94.1924" x="137.8013" y="406.8167">BaseDeDatos</text><line style="stroke:#181818;stroke-width:0.5;" x1="8" x2="329.2949" y1="417.97" y2="417.97"/><rect fill="#FFFFFF" fill-opacity="0.00000" height="6" style="stroke:#C82930;stroke-width:1;" width="6" x="15" y="428.6184"/><text fill="#000000" font-family="sans-serif" font-size="14" lengthAdjust="spacing" textLength="169.4287" x="27" y="434.9651">usuarios: List&lt;Usuario&gt;</text><line style="stroke:#181818;stroke-width:0.5;" x1="8" x2="329.2949" y1="442.2669" y2="442.2669"/><ellipse cx="18" cy="455.9153" fill="#84BE84" rx="3" ry="3" style="stroke:#038048;stroke-width:1;"/><text fill="#000000" font-family="sans-serif" font-size="14" lengthAdjust="spacing" textLength="249.5459" x="27" y="459.262">almacenarDatos(DatosBiometricos)</text><ellipse cx="18" cy="472.2122" fill="#84BE84" rx="3" ry="3" style="stroke:#038048;stroke-width:1;"/><text fill="#000000" font-family="sans-serif" font-size="14" lengthAdjust="spacing" textLength="297.2949" x="27" y="475.5589">buscarUsuario(DatosBiometricos): Usuario</text></g><!--class RegistroAccesos--><g id="elem_RegistroAccesos"><rect codeLine="35" fill="#F1F1F1" height="80.5938" id="RegistroAccesos" rx="2.5" ry="2.5" style="stroke:#181818;stroke-width:0.5;" width="264.4648" x="365.42" y="394.12"/><ellipse cx="435.9224" cy="410.12" fill="#ADD1B2" rx="11" ry="11" style="stroke:#181818;stroke-width:1;"/><path d="M438.8912,415.7606 Q438.3131,416.0575 437.6724,416.1981 Q437.0318,416.3544 436.3287,416.3544 Q433.8287,416.3544 432.5006,414.7138 Q431.1881,413.0575 431.1881,409.9325 Q431.1881,406.8075 432.5006,405.1513 Q433.8287,403.495 436.3287,403.495 Q437.0318,403.495 437.6724,403.6513 Q438.3287,403.8075 438.8912,404.1044 L438.8912,406.8231 Q438.2662,406.245 437.6724,405.9794 Q437.0787,405.6981 436.4537,405.6981 Q435.1099,405.6981 434.4224,406.7763 Q433.7349,407.8388 433.7349,409.9325 Q433.7349,412.0263 434.4224,413.1044 Q435.1099,414.1669 436.4537,414.1669 Q437.0787,414.1669 437.6724,413.9013 Q438.2662,413.62 438.8912,413.0419 L438.8912,415.7606 Z " fill="#000000"/><text fill="#000000" font-family="sans-serif" font-size="14" lengthAdjust="spacing" textLength="114.96" x="456.4224" y="414.9667">RegistroAccesos</text><line style="stroke:#181818;stroke-width:0.5;" x1="366.42" x2="628.8848" y1="426.12" y2="426.12"/><rect fill="#FFFFFF" fill-opacity="0.00000" height="6" style="stroke:#C82930;stroke-width:1;" width="6" x="373.42" y="436.7684"/><text fill="#000000" font-family="sans-serif" font-size="14" lengthAdjust="spacing" textLength="168.0889" x="385.42" y="443.1151">registros: List&lt;Acceso&gt;</text><line style="stroke:#181818;stroke-width:0.5;" x1="366.42" x2="628.8848" y1="450.4169" y2="450.4169"/><ellipse cx="376.42" cy="464.0653" fill="#84BE84" rx="3" ry="3" style="stroke:#038048;stroke-width:1;"/><text fill="#000000" font-family="sans-serif" font-size="14" lengthAdjust="spacing" textLength="238.4648" x="385.42" y="467.412">registrarAcceso(Usuario, boolean)</text></g><!--link Usuario to SistemaBiometrico--><g id="link_Usuario_SistemaBiometrico"><path codeLine="40" d="M392.37,120.59 C405.54,139.15 420.38,160.08 434.3,179.69 " fill="#FFFFFF" fill-opacity="0.00000" id="Usuario-SistemaBiometrico" style="stroke:#181818;stroke-width:1;"/></g><!--link Administrador to BaseDeDatos--><g id="link_Administrador_BaseDeDatos"><path codeLine="41" d="M168.65,309.84 C168.65,334.1 168.65,362.26 168.65,385.55 " fill="#FFFFFF" fill-opacity="0.00000" id="Administrador-BaseDeDatos" style="stroke:#181818;stroke-width:1;"/></g><!--link HuellaDactilar to SistemaBiometrico--><g id="link_HuellaDactilar_SistemaBiometrico"><path codeLine="42" d="M589.65,104.35 C574.22,126.28 554.57,154.19 536.52,179.83 " fill="#FFFFFF" fill-opacity="0.00000" id="HuellaDactilar-SistemaBiometrico" style="stroke:#181818;stroke-width:1;"/></g><!--link SistemaBiometrico to BaseDeDatos--><g id="link_SistemaBiometrico_BaseDeDatos"><path codeLine="43" d="M358.08,326.25 C322.81,346.2 285.42,367.35 253.25,385.55 " fill="#FFFFFF" fill-opacity="0.00000" id="SistemaBiometrico-BaseDeDatos" style="stroke:#181818;stroke-width:1;"/></g><!--link SistemaBiometrico to RegistroAccesos--><g id="link_SistemaBiometrico_RegistroAccesos"><path codeLine="44" d="M490.48,326.25 C492.02,349.31 493.67,373.99 495,393.84 " fill="#FFFFFF" fill-opacity="0.00000" id="SistemaBiometrico-RegistroAccesos" style="stroke:#181818;stroke-width:1;"/></g><!--SRC=[ZPD1JiCm44NtEOMNgK8l426aLbrGYGMYuW1JUmWZ9NOrTbY0k3kEOpkjqmNP9Nyy_yqVH_PWhNYt8p0PyLC9_sm5gLQGTl5Dc-7Cs8gJOz9T_FWvOj_30QIZ7hWLnm4wr45i18mEjIC9N6zQSJQcHz3LRrN9OBTJ0scoZa4P_hzf8pgqZem6Zi2stYJ7t9BtOF40BeZPyla6T_4Cr0NzXOr42poVcIO8xVPa1lGqqjYbxybxuW2B5bitGg53wO1V6IrgIL17w8GiuU96pZQ5Ma3SygUYBsJwc68-gYbl1QekKQ_opxinJD_0E-aDJEdh6s6t5lF08TqvtvpY6BVHYXSVnsCyz9GC-m4a-gNDIra1nhBpQ6LUxBqnehIWl64tRTpCh0iEn- -9PzOJJbJB4HzIJ67Mz4Dij-iDLxVNrvTSPL8L5-rkW_MbAPhSBIZ6_GC0]--></g></svg>